<svg viewBox="0 0 25 19" fill="none" xmlns="http://www.w3.org/2000/svg">
<path d="M5.90289 0.255371H7.90289V2.25537H5.90289V7.25537C5.90289 7.7858 5.69218 8.29451 5.31711 8.66958C4.94203 9.04466 4.43333 9.25537 3.90289 9.25537C4.43333 9.25537 4.94203 9.46609 5.31711 9.84116C5.69218 10.2162 5.90289 10.7249 5.90289 11.2554V16.2554H7.90289V18.2554H5.90289C4.83289 17.9854 3.90289 17.3554 3.90289 16.2554V12.2554C3.90289 11.7249 3.69218 11.2162 3.31711 10.8412C2.94203 10.4661 2.43333 10.2554 1.90289 10.2554H0.902893V8.25537H1.90289C2.43333 8.25537 2.94203 8.04466 3.31711 7.66958C3.69218 7.29451 3.90289 6.7858 3.90289 6.25537V2.25537C3.90289 1.72494 4.11361 1.21623 4.48868 0.841157C4.86375 0.466085 5.37246 0.255371 5.90289 0.255371V0.255371ZM19.9029 0.255371C20.4333 0.255371 20.942 0.466085 21.3171 0.841157C21.6922 1.21623 21.9029 1.72494 21.9029 2.25537V6.25537C21.9029 6.7858 22.1136 7.29451 22.4887 7.66958C22.8638 8.04466 23.3725 8.25537 23.9029 8.25537H24.9029V10.2554H23.9029C23.3725 10.2554 22.8638 10.4661 22.4887 10.8412C22.1136 11.2162 21.9029 11.7249 21.9029 12.2554V16.2554C21.9029 16.7858 21.6922 17.2945 21.3171 17.6696C20.942 18.0447 20.4333 18.2554 19.9029 18.2554H17.9029V16.2554H19.9029V11.2554C19.9029 10.7249 20.1136 10.2162 20.4887 9.84116C20.8638 9.46609 21.3725 9.25537 21.9029 9.25537C21.3725 9.25537 20.8638 9.04466 20.4887 8.66958C20.1136 8.29451 19.9029 7.7858 19.9029 7.25537V2.25537H17.9029V0.255371H19.9029ZM12.9029 12.2554C13.1681 12.2554 13.4225 12.3607 13.61 12.5483C13.7975 12.7358 13.9029 12.9902 13.9029 13.2554C13.9029 13.5206 13.7975 13.7749 13.61 13.9625C13.4225 14.15 13.1681 14.2554 12.9029 14.2554C12.6377 14.2554 12.3833 14.15 12.1958 13.9625C12.0083 13.7749 11.9029 13.5206 11.9029 13.2554C11.9029 12.9902 12.0083 12.7358 12.1958 12.5483C12.3833 12.3607 12.6377 12.2554 12.9029 12.2554V12.2554ZM8.90289 12.2554C9.16811 12.2554 9.42246 12.3607 9.61 12.5483C9.79754 12.7358 9.90289 12.9902 9.90289 13.2554C9.90289 13.5206 9.79754 13.7749 9.61 13.9625C9.42246 14.15 9.16811 14.2554 8.90289 14.2554C8.63768 14.2554 8.38332 14.15 8.19579 13.9625C8.00825 13.7749 7.90289 13.5206 7.90289 13.2554C7.90289 12.9902 8.00825 12.7358 8.19579 12.5483C8.38332 12.3607 8.63768 12.2554 8.90289 12.2554ZM16.9029 12.2554C17.1681 12.2554 17.4225 12.3607 17.61 12.5483C17.7975 12.7358 17.9029 12.9902 17.9029 13.2554C17.9029 13.5206 17.7975 13.7749 17.61 13.9625C17.4225 14.15 17.1681 14.2554 16.9029 14.2554C16.6377 14.2554 16.3833 14.15 16.1958 13.9625C16.0083 13.7749 15.9029 13.5206 15.9029 13.2554C15.9029 12.9902 16.0083 12.7358 16.1958 12.5483C16.3833 12.3607 16.6377 12.2554 16.9029 12.2554V12.2554Z" fill="currentColor"/>
</svg>
