<svg width="979" height="762" viewBox="0 0 979 762" fill="none" xmlns="http://www.w3.org/2000/svg">
<g clip-path="url(#clip0_303:1029)">
<path d="M790.311 0H665.355V162.646H790.311V0Z" fill="#F4F4F4"/>
<path d="M790.312 162.646H794.365V0H790.312V162.646Z" fill="#F4F4F4"/>
<path opacity="0.05" d="M790.312 162.646H794.365V0H790.312V162.646Z" fill="#292A2E"/>
<path opacity="0.05" d="M767.55 29.6279H688.118V133.018H767.55V29.6279Z" fill="#292A2E"/>
<path opacity="0.03" d="M767.549 29.6279H763.409V133.018H767.549V29.6279Z" fill="#292A2E"/>
<path d="M892.506 202.643H790.312V305.775H892.506V202.643Z" fill="#F4F4F4"/>
<path opacity="0.05" d="M873.89 221.43H808.928V286.989H873.89V221.43Z" fill="#292A2E"/>
<path d="M892.506 305.775H896.559V202.643H892.506V305.775Z" fill="#F4F4F4"/>
<path opacity="0.05" d="M892.506 305.775H896.559V202.643H892.506V305.775Z" fill="#292A2E"/>
<path opacity="0.03" d="M873.89 221.43H869.75V286.989H873.89V221.43Z" fill="#292A2E"/>
<path d="M555.786 16.9299H188.118V384.598H555.786V16.9299Z" fill="#F4F4F4"/>
<path d="M560 16.9299H555.786V384.598H560V16.9299Z" fill="#F4F4F4"/>
<path opacity="0.05" d="M560 16.9299H555.786V384.598H560V16.9299Z" fill="#292A2E"/>
<path opacity="0.05" d="M466.717 270.283V174.089H387.92V229.976H265.863V328.93H213.987V384.598H265.863H275.857H538.1V270.283H466.717Z" fill="#292A2E"/>
<path opacity="0.34" d="M455.415 184.533H398.034V194.977H455.415V184.533Z" fill="#FFFFFA"/>
<path opacity="0.34" d="M455.415 206.177H398.034V216.621H455.415V206.177Z" fill="#FFFFFA"/>
<path opacity="0.34" d="M455.415 227.82H398.034V238.264H455.415V227.82Z" fill="#FFFFFA"/>
<path opacity="0.34" d="M527.924 280.421H517.348V290.865H527.924V280.421Z" fill="#FFFFFA"/>
<path opacity="0.34" d="M527.924 302.064H517.348V312.508H527.924V302.064Z" fill="#FFFFFA"/>
<path opacity="0.34" d="M527.924 323.708H517.348V334.152H527.924V323.708Z" fill="#FFFFFA"/>
<path opacity="0.34" d="M508.359 280.421H497.783V290.865H508.359V280.421Z" fill="#FFFFFA"/>
<path opacity="0.34" d="M508.359 302.064H497.783V312.508H508.359V302.064Z" fill="#FFFFFA"/>
<path opacity="0.34" d="M508.359 323.708H497.783V334.152H508.359V323.708Z" fill="#FFFFFA"/>
<path opacity="0.34" d="M489.322 280.421H478.746V290.865H489.322V280.421Z" fill="#FFFFFA"/>
<path opacity="0.34" d="M489.322 302.064H478.746V312.508H489.322V302.064Z" fill="#FFFFFA"/>
<path opacity="0.34" d="M489.322 323.708H478.746V334.152H489.322V323.708Z" fill="#FFFFFA"/>
<path d="M555.786 198.701H481.805V16.9299H475.687V198.701H275.857V16.9299H269.738V198.701H188.118V204.82H269.738V384.598H275.857V204.82H475.687V384.598H481.805V204.82H555.786V198.701Z" fill="white"/>
<path d="M570.432 384.154H173.471V396.381H570.432V384.154Z" fill="#F4F4F4"/>
<path opacity="0.1" d="M570.432 384.154H173.471V396.381H570.432V384.154Z" fill="#292A2E"/>
<path opacity="0.1" d="M576.164 384.154H570.433V396.381H576.164V384.154Z" fill="#292A2E"/>
<path opacity="0.1" d="M576.164 384.154H570.433V396.381H576.164V384.154Z" fill="#292A2E"/>
<path opacity="0.05" d="M747.449 745.306H726.446V759.332H747.449V745.306Z" fill="#292A2E"/>
<path opacity="0.05" d="M879.298 745.306H858.295V759.332H879.298V745.306Z" fill="#292A2E"/>
<path d="M898.551 531.599H707.194V745.306H898.551V531.599Z" fill="#F4F4F4"/>
<path opacity="0.03" d="M898.551 531.599H707.194V745.306H898.551V531.599Z" fill="#292A2E"/>
<path d="M847.729 531.599H656.372V745.306H847.729V531.599Z" fill="#F4F4F4"/>
<path opacity="0.05" d="M696.628 745.306H675.625V759.332H696.628V745.306Z" fill="#292A2E"/>
<path opacity="0.05" d="M828.477 745.306H807.474V759.332H828.477V745.306Z" fill="#292A2E"/>
<path opacity="0.7" d="M837.434 544.812H666.667V599.014H837.434V544.812Z" fill="white"/>
<path opacity="0.7" d="M837.434 612.281H666.667V666.483H837.434V612.281Z" fill="white"/>
<path opacity="0.7" d="M837.434 679.748H666.667V733.95H837.434V679.748Z" fill="white"/>
<path opacity="0.05" d="M752.05 579.497C756.239 579.497 759.634 576.102 759.634 571.913C759.634 567.725 756.239 564.329 752.05 564.329C747.862 564.329 744.466 567.725 744.466 571.913C744.466 576.102 747.862 579.497 752.05 579.497Z" fill="#292A2E"/>
<path opacity="0.05" d="M752.05 646.966C756.239 646.966 759.634 643.571 759.634 639.382C759.634 635.194 756.239 631.798 752.05 631.798C747.862 631.798 744.466 635.194 744.466 639.382C744.466 643.571 747.862 646.966 752.05 646.966Z" fill="#292A2E"/>
<path opacity="0.05" d="M752.05 714.434C756.239 714.434 759.634 711.039 759.634 706.85C759.634 702.662 756.239 699.266 752.05 699.266C747.862 699.266 744.466 702.662 744.466 706.85C744.466 711.039 747.862 714.434 752.05 714.434Z" fill="#292A2E"/>
<path d="M706.457 80.634H456.96C436.32 80.634 419.588 97.366 419.588 118.006V704.517C419.588 725.157 436.32 741.889 456.96 741.889H706.457C727.097 741.889 743.829 725.157 743.829 704.517V118.006C743.829 97.366 727.097 80.634 706.457 80.634Z" fill="#292A2E"/>
<path d="M706.34 92.304H457.077C442.904 92.304 431.415 103.793 431.415 117.966V703.685C431.415 717.858 442.904 729.347 457.077 729.347H706.34C720.513 729.347 732.002 717.858 732.002 703.685V117.966C732.002 103.793 720.513 92.304 706.34 92.304Z" fill="white"/>
<path d="M520.146 87.478H643.271V100.218C643.272 102.028 642.916 103.82 642.224 105.492C641.532 107.164 640.517 108.683 639.238 109.963C637.958 111.243 636.439 112.258 634.767 112.951C633.096 113.644 631.304 114 629.494 114H533.923C530.269 114 526.765 112.549 524.181 109.965C521.598 107.381 520.146 103.877 520.146 100.223V87.478Z" fill="#292A2E"/>
<path opacity="0.8" d="M653.005 537.637H510.413C502.011 537.637 495.2 544.448 495.2 552.85V593.7C495.2 602.102 502.011 608.913 510.413 608.913H653.005C661.407 608.913 668.218 602.102 668.218 593.7V552.85C668.218 544.448 661.407 537.637 653.005 537.637Z" fill="#EA394A"/>
<path d="M668.212 593.7V600.7C668.212 602.698 667.819 604.676 667.055 606.522C666.29 608.367 665.17 610.044 663.757 611.457C662.344 612.87 660.667 613.99 658.822 614.755C656.976 615.519 654.998 615.912 653 615.912H510.412C508.414 615.912 506.436 615.519 504.59 614.755C502.745 613.99 501.067 612.87 499.655 611.457C498.242 610.044 497.122 608.367 496.357 606.522C495.593 604.676 495.2 602.698 495.2 600.7V593.7C495.2 597.734 496.802 601.603 499.655 604.455C502.507 607.307 506.376 608.91 510.41 608.91H653C654.998 608.91 656.976 608.517 658.821 607.753C660.667 606.988 662.344 605.868 663.756 604.456C665.169 603.043 666.289 601.366 667.054 599.521C667.818 597.676 668.212 595.698 668.212 593.7V593.7Z" fill="#EA394A"/>
<path d="M572.2 594.331C571.604 594.331 571.027 594.118 570.574 593.731L554.253 579.744C553.749 579.312 553.437 578.698 553.386 578.037C553.335 577.376 553.549 576.721 553.98 576.217C554.412 575.713 555.026 575.401 555.687 575.35C556.348 575.299 557.003 575.512 557.507 575.944L571.989 588.356L605.689 551.485C606.136 550.995 606.76 550.704 607.422 550.674C608.085 550.644 608.732 550.879 609.221 551.326C609.711 551.773 610.002 552.397 610.032 553.059C610.062 553.721 609.827 554.368 609.38 554.858L574.049 593.516C573.815 593.773 573.529 593.978 573.211 594.119C572.892 594.259 572.548 594.331 572.2 594.331V594.331Z" fill="white"/>
<g opacity="0.5">
<path opacity="0.5" d="M723.365 351.381C723.365 366.06 709.099 378.306 704.798 391.549C700.341 405.284 704.53 423.541 696.214 434.968C687.815 446.509 669.094 448.129 657.553 456.528C646.125 464.844 638.846 482.194 625.118 486.653C611.872 490.954 595.845 481.34 581.164 481.34C566.484 481.34 550.455 490.957 537.213 486.653C523.478 482.196 516.203 464.844 504.778 456.528C493.235 448.129 474.515 446.509 466.116 434.968C457.8 423.541 461.989 405.277 457.532 391.549C453.23 378.304 438.964 366.056 438.964 351.381C438.964 336.705 453.23 324.454 457.532 311.213C461.989 297.484 457.8 279.221 466.116 267.794C474.515 256.252 493.235 254.633 504.778 246.234C516.203 237.917 523.483 220.566 537.211 216.109C550.458 211.808 566.485 221.421 581.164 221.421C595.844 221.421 611.874 211.804 625.118 216.109C638.852 220.566 646.125 237.916 657.553 246.234C669.094 254.633 687.815 256.252 696.214 267.794C704.53 279.221 700.341 297.483 704.798 311.211C709.099 324.454 723.365 336.701 723.365 351.381Z" fill="#EA394A"/>
</g>
<path d="M450.469 173V138.875H460.547C463.562 138.875 466.234 139.547 468.562 140.891C470.906 142.234 472.719 144.141 474 146.609C475.281 149.078 475.922 151.906 475.922 155.094V156.805C475.922 160.039 475.273 162.883 473.977 165.336C472.695 167.789 470.859 169.68 468.469 171.008C466.094 172.336 463.367 173 460.289 173H450.469ZM456.398 143.656V168.266H460.266C463.375 168.266 465.758 167.297 467.414 165.359C469.086 163.406 469.938 160.609 469.969 156.969V155.07C469.969 151.367 469.164 148.539 467.555 146.586C465.945 144.633 463.609 143.656 460.547 143.656H456.398ZM480.211 160.086C480.211 157.602 480.703 155.367 481.688 153.383C482.672 151.383 484.055 149.852 485.836 148.789C487.617 147.711 489.664 147.172 491.977 147.172C495.398 147.172 498.172 148.273 500.297 150.477C502.438 152.68 503.594 155.602 503.766 159.242L503.789 160.578C503.789 163.078 503.305 165.312 502.336 167.281C501.383 169.25 500.008 170.773 498.211 171.852C496.43 172.93 494.367 173.469 492.023 173.469C488.445 173.469 485.578 172.281 483.422 169.906C481.281 167.516 480.211 164.336 480.211 160.367V160.086ZM485.906 160.578C485.906 163.188 486.445 165.234 487.523 166.719C488.602 168.188 490.102 168.922 492.023 168.922C493.945 168.922 495.438 168.172 496.5 166.672C497.578 165.172 498.117 162.977 498.117 160.086C498.117 157.523 497.562 155.492 496.453 153.992C495.359 152.492 493.867 151.742 491.977 151.742C490.117 151.742 488.641 152.484 487.547 153.969C486.453 155.438 485.906 157.641 485.906 160.578ZM530.883 165.148L534.914 147.641H540.469L533.555 173H528.867L523.43 155.586L518.086 173H513.398L506.461 147.641H512.016L516.117 164.961L521.32 147.641H525.609L530.883 165.148ZM549.562 147.641L549.727 150.57C551.602 148.305 554.062 147.172 557.109 147.172C562.391 147.172 565.078 150.195 565.172 156.242V173H559.477V156.57C559.477 154.961 559.125 153.773 558.422 153.008C557.734 152.227 556.602 151.836 555.023 151.836C552.727 151.836 551.016 152.875 549.891 154.953V173H544.195V147.641H549.562ZM577.055 173H571.359V137H577.055V173ZM582.211 160.086C582.211 157.602 582.703 155.367 583.688 153.383C584.672 151.383 586.055 149.852 587.836 148.789C589.617 147.711 591.664 147.172 593.977 147.172C597.398 147.172 600.172 148.273 602.297 150.477C604.438 152.68 605.594 155.602 605.766 159.242L605.789 160.578C605.789 163.078 605.305 165.312 604.336 167.281C603.383 169.25 602.008 170.773 600.211 171.852C598.43 172.93 596.367 173.469 594.023 173.469C590.445 173.469 587.578 172.281 585.422 169.906C583.281 167.516 582.211 164.336 582.211 160.367V160.086ZM587.906 160.578C587.906 163.188 588.445 165.234 589.523 166.719C590.602 168.188 592.102 168.922 594.023 168.922C595.945 168.922 597.438 168.172 598.5 166.672C599.578 165.172 600.117 162.977 600.117 160.086C600.117 157.523 599.562 155.492 598.453 153.992C597.359 152.492 595.867 151.742 593.977 151.742C592.117 151.742 590.641 152.484 589.547 153.969C588.453 155.438 587.906 157.641 587.906 160.578ZM625.758 173C625.508 172.516 625.289 171.727 625.102 170.633C623.289 172.523 621.07 173.469 618.445 173.469C615.898 173.469 613.82 172.742 612.211 171.289C610.602 169.836 609.797 168.039 609.797 165.898C609.797 163.195 610.797 161.125 612.797 159.688C614.812 158.234 617.688 157.508 621.422 157.508H624.914V155.844C624.914 154.531 624.547 153.484 623.812 152.703C623.078 151.906 621.961 151.508 620.461 151.508C619.164 151.508 618.102 151.836 617.273 152.492C616.445 153.133 616.031 153.953 616.031 154.953H610.336C610.336 153.562 610.797 152.266 611.719 151.062C612.641 149.844 613.891 148.891 615.469 148.203C617.062 147.516 618.836 147.172 620.789 147.172C623.758 147.172 626.125 147.922 627.891 149.422C629.656 150.906 630.562 153 630.609 155.703V167.141C630.609 169.422 630.93 171.242 631.57 172.602V173H625.758ZM619.5 168.898C620.625 168.898 621.68 168.625 622.664 168.078C623.664 167.531 624.414 166.797 624.914 165.875V161.094H621.844C619.734 161.094 618.148 161.461 617.086 162.195C616.023 162.93 615.492 163.969 615.492 165.312C615.492 166.406 615.852 167.281 616.57 167.938C617.305 168.578 618.281 168.898 619.5 168.898ZM635.508 160.133C635.508 156.227 636.414 153.094 638.227 150.734C640.039 148.359 642.469 147.172 645.516 147.172C648.203 147.172 650.375 148.109 652.031 149.984V137H657.727V173H652.57L652.289 170.375C650.586 172.438 648.312 173.469 645.469 173.469C642.5 173.469 640.094 172.273 638.25 169.883C636.422 167.492 635.508 164.242 635.508 160.133ZM641.203 160.625C641.203 163.203 641.695 165.219 642.68 166.672C643.68 168.109 645.094 168.828 646.922 168.828C649.25 168.828 650.953 167.789 652.031 165.711V154.883C650.984 152.852 649.297 151.836 646.969 151.836C645.125 151.836 643.703 152.57 642.703 154.039C641.703 155.492 641.203 157.688 641.203 160.625Z" fill="#EA394A"/>
<path d="M891.407 630.159C891.142 630.159 890.887 630.053 890.7 629.866C889.291 628.458 886.994 602.608 880.808 525.644C878.277 494.151 875.886 464.405 874.141 446.328C874.017 445.037 873.516 444.886 873.352 444.837C870.966 444.128 863.699 449.844 859.645 454.86C859.478 455.066 859.236 455.198 858.972 455.226C858.708 455.254 858.444 455.176 858.238 455.009C858.032 454.842 857.9 454.6 857.872 454.336C857.844 454.072 857.922 453.808 858.089 453.602C860.771 450.286 869.507 441.602 873.927 442.921C874.818 443.189 875.927 443.964 876.133 446.136C877.879 464.229 880.27 493.983 882.802 525.484C886.561 572.253 890.82 625.238 892.219 628.575C892.326 628.724 892.391 628.9 892.404 629.084C892.418 629.268 892.381 629.451 892.297 629.615C892.213 629.779 892.086 629.916 891.929 630.012C891.771 630.108 891.591 630.159 891.407 630.159V630.159Z" fill="#494949"/>
<path d="M871.572 479.499C888.166 466.197 893.665 445.494 883.856 433.256C874.047 421.019 852.643 421.881 836.049 435.183C819.455 448.484 813.955 469.187 823.765 481.425C833.574 493.662 854.978 492.8 871.572 479.499Z" fill="#0CBC8B"/>
<path opacity="0.2" d="M871.572 479.499C888.166 466.197 893.665 445.494 883.856 433.256C874.047 421.019 852.643 421.881 836.049 435.183C819.455 448.484 813.955 469.187 823.765 481.425C833.574 493.662 854.978 492.8 871.572 479.499Z" fill="white"/>
<path d="M828.417 484.538C828.322 484.538 828.229 484.511 828.148 484.46C828.068 484.409 828.004 484.336 827.964 484.25C827.923 484.164 827.908 484.068 827.92 483.974C827.932 483.88 827.971 483.791 828.032 483.718L875.323 426.69C875.365 426.639 875.416 426.597 875.475 426.567C875.533 426.536 875.596 426.517 875.662 426.511C875.727 426.505 875.793 426.512 875.856 426.531C875.919 426.551 875.977 426.582 876.028 426.624C876.078 426.666 876.12 426.718 876.151 426.776C876.181 426.834 876.2 426.898 876.206 426.963C876.212 427.028 876.205 427.094 876.186 427.157C876.167 427.22 876.135 427.278 876.093 427.329L828.8 484.357C828.753 484.413 828.695 484.459 828.629 484.49C828.562 484.521 828.49 484.538 828.417 484.538V484.538Z" fill="white"/>
<path d="M901.721 617.933C901.609 617.933 901.498 617.914 901.393 617.877C901.143 617.79 900.937 617.607 900.822 617.368C900.706 617.13 900.69 616.855 900.777 616.605L918.541 565.518C919.064 564.017 919.955 562.671 921.133 561.603C922.311 560.536 923.738 559.781 925.283 559.408C926.828 559.036 928.443 559.056 929.978 559.469C931.513 559.881 932.92 560.673 934.07 561.77L943.461 570.742C943.559 570.832 943.639 570.94 943.695 571.061C943.75 571.182 943.781 571.313 943.786 571.446C943.79 571.58 943.768 571.712 943.721 571.837C943.673 571.961 943.601 572.075 943.509 572.171C943.417 572.267 943.307 572.344 943.184 572.397C943.062 572.45 942.931 572.478 942.797 572.48C942.664 572.481 942.532 572.456 942.409 572.406C942.285 572.356 942.173 572.281 942.079 572.187L932.688 563.215C931.78 562.349 930.669 561.724 929.457 561.399C928.246 561.073 926.971 561.057 925.752 561.351C924.532 561.646 923.405 562.241 922.475 563.084C921.546 563.927 920.842 564.989 920.429 566.174L902.666 617.261C902.598 617.457 902.47 617.627 902.301 617.748C902.131 617.868 901.929 617.933 901.721 617.933Z" fill="#494949"/>
<path d="M969.701 599.026C981.999 589.292 981.268 567.883 968.069 551.208C954.87 534.532 934.201 528.905 921.903 538.639C909.605 548.373 910.336 569.782 923.535 586.458C936.734 603.133 957.403 608.76 969.701 599.026Z" fill="#0CBC8B"/>
<path d="M883.337 626.9C883.112 626.9 882.894 626.824 882.718 626.685C882.541 626.545 882.417 626.351 882.365 626.132L852.554 501.489C852.35 500.639 851.916 499.862 851.3 499.243C850.683 498.624 849.908 498.188 849.059 497.981C848.21 497.774 847.32 497.806 846.488 498.072C845.656 498.338 844.913 498.828 844.342 499.489L835.153 510.1C835.067 510.199 834.962 510.281 834.845 510.34C834.728 510.398 834.6 510.434 834.469 510.443C834.338 510.453 834.206 510.436 834.081 510.395C833.957 510.353 833.841 510.288 833.742 510.202C833.643 510.116 833.561 510.011 833.502 509.894C833.443 509.776 833.408 509.649 833.399 509.518C833.389 509.386 833.406 509.255 833.447 509.13C833.489 509.006 833.554 508.89 833.64 508.791L842.829 498.172C843.642 497.233 844.698 496.537 845.881 496.159C847.064 495.782 848.328 495.738 849.534 496.032C850.74 496.326 851.842 496.948 852.718 497.828C853.594 498.708 854.211 499.812 854.5 501.02L884.31 625.665C884.372 625.923 884.328 626.195 884.189 626.421C884.051 626.647 883.828 626.808 883.57 626.87C883.494 626.889 883.416 626.899 883.337 626.9Z" fill="#494949"/>
<path d="M872.342 537.798C875.966 516.842 866.376 497.688 850.921 495.015C835.467 492.343 820.001 507.164 816.377 528.12C812.753 549.076 822.344 568.23 837.798 570.903C853.253 573.575 868.718 558.754 872.342 537.798Z" fill="#0CBC8B"/>
<path d="M891.408 630.159C891.367 630.159 891.326 630.157 891.285 630.151C891.022 630.119 890.782 629.983 890.619 629.774C890.456 629.565 890.382 629.3 890.414 629.037L909.45 474.479C909.657 472.795 910.346 471.207 911.435 469.906C912.523 468.604 913.964 467.645 915.585 467.143C917.205 466.641 918.936 466.618 920.57 467.076C922.203 467.535 923.669 468.455 924.792 469.727L946.55 494.37C946.726 494.569 946.815 494.829 946.798 495.094C946.782 495.359 946.661 495.606 946.462 495.782C946.363 495.869 946.249 495.936 946.125 495.978C946 496.021 945.869 496.039 945.738 496.03C945.473 496.014 945.226 495.893 945.05 495.694L923.292 471.051C922.424 470.068 921.291 469.357 920.029 469.003C918.767 468.648 917.429 468.666 916.177 469.054C914.924 469.442 913.81 470.183 912.969 471.189C912.128 472.195 911.595 473.422 911.435 474.723L892.4 629.281C892.37 629.523 892.253 629.746 892.07 629.908C891.888 630.07 891.652 630.159 891.408 630.159V630.159Z" fill="#494949"/>
<path d="M968.865 508.063C976.457 494.339 967.525 474.869 948.915 464.575C930.306 454.281 909.066 457.062 901.474 470.786C893.883 484.51 902.815 503.981 921.424 514.275C940.034 524.568 961.274 521.788 968.865 508.063Z" fill="#0CBC8B"/>
<path opacity="0.2" d="M969.701 599.026C981.999 589.292 981.268 567.883 968.069 551.208C954.87 534.532 934.201 528.905 921.903 538.639C909.605 548.373 910.336 569.782 923.535 586.458C936.734 603.133 957.403 608.76 969.701 599.026Z" fill="white"/>
<path opacity="0.5" d="M872.342 537.798C875.966 516.842 866.376 497.688 850.921 495.015C835.467 492.343 820.001 507.164 816.377 528.12C812.753 549.076 822.344 568.23 837.798 570.903C853.253 573.575 868.718 558.754 872.342 537.798Z" fill="white"/>
<path opacity="0.5" d="M968.865 508.063C976.457 494.339 967.525 474.869 948.915 464.575C930.306 454.281 909.066 457.062 901.474 470.786C893.883 484.51 902.815 503.981 921.424 514.275C940.034 524.568 961.274 521.788 968.865 508.063Z" fill="white"/>
<path d="M915.755 761.3H867.059L858.989 605.496H923.824L915.755 761.3Z" fill="#292A2E"/>
<path opacity="0.3" d="M915.755 761.3H867.059L858.989 605.496H923.824L915.755 761.3Z" fill="white"/>
<path d="M969.7 599.52C969.625 599.52 969.55 599.503 969.482 599.47C969.414 599.438 969.355 599.39 969.308 599.331L921.508 538.944C921.467 538.892 921.437 538.833 921.419 538.77C921.401 538.707 921.396 538.641 921.403 538.576C921.411 538.51 921.431 538.447 921.463 538.39C921.495 538.333 921.538 538.282 921.589 538.241C921.641 538.201 921.7 538.17 921.763 538.152C921.826 538.134 921.892 538.129 921.958 538.137C922.023 538.144 922.086 538.164 922.143 538.196C922.201 538.228 922.251 538.271 922.292 538.323L970.092 598.71C970.15 598.784 970.186 598.872 970.197 598.965C970.207 599.059 970.191 599.153 970.15 599.238C970.109 599.322 970.045 599.393 969.965 599.443C969.886 599.493 969.794 599.52 969.7 599.52V599.52Z" fill="white"/>
<path d="M965.687 512.9C965.58 512.899 965.477 512.864 965.392 512.8L904.226 468.139C904.173 468.1 904.128 468.051 904.094 467.995C904.06 467.939 904.037 467.877 904.027 467.812C904.017 467.747 904.019 467.681 904.035 467.617C904.05 467.553 904.078 467.493 904.117 467.44C904.156 467.387 904.205 467.342 904.261 467.308C904.317 467.274 904.379 467.251 904.444 467.241C904.509 467.23 904.575 467.233 904.639 467.249C904.703 467.264 904.763 467.292 904.816 467.331L965.982 512C966.066 512.063 966.128 512.15 966.159 512.25C966.19 512.349 966.19 512.456 966.157 512.556C966.125 512.655 966.062 512.742 965.977 512.803C965.893 512.865 965.792 512.899 965.687 512.9Z" fill="white"/>
<path d="M835.312 570.251C835.268 570.251 835.225 570.245 835.183 570.234C835.055 570.2 834.946 570.116 834.879 570.001C834.813 569.886 834.795 569.75 834.829 569.622L854.3 496.669C854.336 496.542 854.419 496.434 854.533 496.367C854.647 496.301 854.783 496.282 854.911 496.314C855.039 496.348 855.148 496.432 855.215 496.547C855.281 496.661 855.299 496.798 855.265 496.926L835.8 569.879C835.771 569.986 835.708 570.081 835.62 570.149C835.531 570.216 835.423 570.252 835.312 570.251Z" fill="white"/>
<path d="M953.263 761.3H0.737043C0.638042 761.304 0.53932 761.287 0.44678 761.252C0.35424 761.217 0.26978 761.163 0.198449 761.094C0.127118 761.026 0.0703808 760.943 0.0316274 760.852C-0.007126 760.761 -0.0270996 760.663 -0.0270996 760.564C-0.0270996 760.465 -0.007126 760.367 0.0316274 760.275C0.0703808 760.184 0.127118 760.102 0.198449 760.033C0.26978 759.964 0.35424 759.911 0.44678 759.875C0.53932 759.84 0.638042 759.824 0.737043 759.827H953.263C953.362 759.824 953.461 759.84 953.553 759.875C953.646 759.911 953.73 759.964 953.802 760.033C953.873 760.102 953.93 760.184 953.969 760.275C954.007 760.367 954.027 760.465 954.027 760.564C954.027 760.663 954.007 760.761 953.969 760.852C953.93 760.943 953.873 761.026 953.802 761.094C953.73 761.163 953.646 761.217 953.553 761.252C953.461 761.287 953.362 761.304 953.263 761.3V761.3Z" fill="#292A2E"/>
<path d="M276.864 448.797C276.864 448.797 276.612 442.059 276.666 457.346C276.864 514.369 277.854 579.503 280.271 617.618C284.158 678.89 294.123 872.065 294.123 872.065L241.413 871.623L190.326 446.481L276.864 448.797Z" fill="#262626"/>
<path d="M217.341 516.042C217.341 516.042 215.157 557.423 214.754 567.137C213.818 589.605 213.492 612.867 213.492 639.242L205.181 570.099C205.181 570.099 211.261 548.431 217.341 516.042Z" fill="#0A0A0A" fill-opacity="0.3"/>
<path d="M132.764 453.226C132.764 453.226 128.095 648.118 128.779 657.643L148.381 870.586L200.22 871.544L195.168 649.939C195.168 649.939 198.731 588.809 213.501 532.045C221.058 502.913 225.606 473.081 227.074 443.02L132.764 453.226Z" fill="#262626"/>
<path d="M277.439 448.792L277.611 448.801C277.611 448.801 277.486 445.475 277.439 448.792Z" fill="#333333"/>
<path d="M123.355 331.372C123.232 331.372 123.114 331.326 123.025 331.242C122.936 331.158 122.883 331.043 122.876 330.921L121.714 312.557C121.706 312.43 121.75 312.306 121.834 312.211C121.918 312.116 122.037 312.059 122.164 312.051C122.29 312.045 122.414 312.089 122.508 312.173C122.603 312.258 122.661 312.375 122.67 312.502L123.832 330.866C123.839 330.992 123.796 331.117 123.711 331.212C123.627 331.306 123.508 331.364 123.381 331.371L123.355 331.372Z" fill="#0C0C0C"/>
<path d="M130.364 349.789L129.407 349.822L132.946 453.242L133.903 453.209L130.364 349.789Z" fill="#0C0C0C"/>
<path d="M342.291 87.8265C342.016 87.3834 341.833 86.8887 341.755 86.3727C341.676 85.8567 341.704 85.3301 341.836 84.8251C341.968 84.32 342.201 83.8472 342.521 83.4353C342.842 83.0234 343.243 82.6811 343.7 82.4294C344.602 81.9728 345.644 81.8758 346.615 82.158C347.586 82.4402 348.413 83.0806 348.93 83.9495L351.673 88.3547L350.346 72.8724C350.062 70.8871 350.974 68.2729 353.22 68.0971C355.025 67.8354 356.496 65.4091 358.657 66.4762C358.677 66.4706 375.63 79.8272 375.897 81.6664L376.941 106.174C378.075 113.978 351.558 112.413 351.558 112.413L342.291 87.8265Z" fill="#E98862"/>
<g opacity="0.1">
<path opacity="0.1" d="M342.291 87.8265C342.016 87.3834 341.833 86.8887 341.755 86.3727C341.676 85.8567 341.704 85.3301 341.836 84.8251C341.968 84.32 342.201 83.8472 342.521 83.4353C342.842 83.0234 343.243 82.6811 343.7 82.4294C344.602 81.9728 345.644 81.8758 346.615 82.158C347.586 82.4402 348.413 83.0806 348.93 83.9495L351.673 88.3547L350.346 72.8724C350.062 70.8871 350.974 68.2729 353.22 68.0971C355.025 67.8354 356.496 65.4091 358.657 66.4762C358.677 66.4706 375.63 79.8272 375.897 81.6664L376.941 106.174C378.075 113.978 351.558 112.413 351.558 112.413L342.291 87.8265Z" fill="#0C0C0C"/>
</g>
<path d="M161.064 208.047C161.064 208.047 159.542 230.889 154.403 239.173C139.609 263.03 135.323 289.868 150.138 303.891C164.953 317.913 259.449 318.11 266.608 285.859C272.634 258.707 259.7 255.788 256.554 233.391C255.13 223.256 251.213 202.005 251.213 202.005" fill="#0A0A0A"/>
<path d="M242.149 281.13C241.985 281.109 240.175 311.144 205.283 308.525C181.128 306.716 172.516 281.086 171.959 281.086C174.564 280.532 178.949 279.727 180.106 279.11C183.91 277.066 188.614 274.94 189.841 267.553C190.55 263.299 189.349 241.516 189.719 237.207L226.797 245.483C226.278 254.579 222.652 275.669 235.362 279.402C237.479 280.024 239.757 280.591 242.149 281.13Z" fill="#E98862"/>
<path opacity="0.5" d="M227.319 270.787C226.738 268.915 226.364 266.986 226.204 265.033C225.796 260.576 225.877 256.087 226.446 251.648C218.911 250.63 211.812 247.52 205.955 242.67C205.267 245.212 201.481 256.323 202.529 258.739C204.509 263.307 213.821 270.787 227.319 270.787Z" fill="#0C0C0C"/>
<path d="M222.525 261.429C207.906 262.847 188.992 256.997 185.074 237.529L181.539 219.964C177.62 200.497 184.668 182.658 202.998 178.968C221.328 175.281 238.204 188.303 242.122 207.77L243.688 215.547C245.191 223.016 248.606 258.906 222.525 261.429Z" fill="#E98862"/>
<path d="M232.923 238.148C228.173 240.563 222.754 241.327 217.522 240.318C217.341 240.284 217.153 240.302 216.982 240.37C216.811 240.438 216.662 240.554 216.554 240.703C216.446 240.853 216.383 241.03 216.372 241.214C216.361 241.398 216.403 241.582 216.493 241.743C218.053 244.492 221.753 249.188 228.099 247.273C232.198 246.037 233.747 241.82 234.321 239.212C234.361 239.032 234.347 238.844 234.284 238.671C234.22 238.498 234.108 238.347 233.961 238.235C233.814 238.123 233.638 238.056 233.454 238.04C233.27 238.025 233.086 238.062 232.923 238.148V238.148Z" fill="white"/>
<path d="M233.22 217.024C234.487 217.024 235.515 215.997 235.515 214.729C235.515 213.461 234.487 212.434 233.22 212.434C231.952 212.434 230.924 213.461 230.924 214.729C230.924 215.997 231.952 217.024 233.22 217.024Z" fill="#0C0C0C"/>
<path d="M211.165 220.886C212.433 220.886 213.46 219.858 213.46 218.591C213.46 217.323 212.433 216.295 211.165 216.295C209.898 216.295 208.87 217.323 208.87 218.591C208.87 219.858 209.898 220.886 211.165 220.886Z" fill="#0C0C0C"/>
<path opacity="0.1" d="M213.232 235.92C215.638 235.633 217.417 233.97 217.207 232.206C216.996 230.441 214.876 229.244 212.47 229.531C210.064 229.818 208.285 231.481 208.495 233.245C208.706 235.01 210.827 236.207 213.232 235.92Z" fill="#0C0C0C"/>
<path opacity="0.1" d="M238.652 228.865C238.865 230.627 240.988 231.823 243.394 231.539C243.81 231.49 244.219 231.397 244.616 231.262C244.728 229.161 244.734 227.14 244.673 225.269C244.005 225.102 243.311 225.061 242.628 225.149C240.222 225.433 238.444 227.095 238.652 228.865Z" fill="#0C0C0C"/>
<path opacity="0.5" d="M228.022 234.311L228.058 234.305C228.801 234.15 229.535 233.955 230.256 233.719C231.332 233.359 232.737 232.767 232.545 231.794C232.322 230.684 226.872 219.328 226.253 218.039C226.199 217.926 226.102 217.839 225.984 217.798C225.866 217.756 225.736 217.764 225.623 217.818C225.511 217.872 225.424 217.969 225.383 218.087C225.341 218.205 225.348 218.335 225.403 218.448C227.726 223.284 231.468 231.235 231.619 231.982C231.501 232.331 229.716 233.011 227.873 233.382C227.751 233.404 227.642 233.472 227.571 233.573C227.499 233.674 227.47 233.799 227.489 233.921C227.509 234.043 227.576 234.153 227.676 234.226C227.775 234.3 227.9 234.331 228.022 234.313L228.022 234.311Z" fill="#0C0C0C"/>
<path d="M166.914 226.269L183.346 223.059C195.759 217.869 199.28 196.235 199.28 196.235C199.28 196.235 214.6 210.824 251.213 202.003C251.213 202.003 243.26 150.892 189.198 166.406C171.765 171.408 159.418 189.176 161.255 212.71C162.542 229.203 166.914 226.269 166.914 226.269Z" fill="#0A0A0A"/>
<path d="M187.406 243.231C181.836 244.352 176.12 239.302 174.998 233.73C173.875 228.159 177.774 224.179 183.344 223.058L186.966 226.213L192.193 242.266L187.406 243.231Z" fill="#E98862"/>
<path d="M230.202 208.982C231.596 207.996 233.226 207.397 234.926 207.247C235.78 207.166 236.64 207.213 237.479 207.389C238.326 207.562 239.148 207.84 239.926 208.218L239.951 208.229C240.037 208.267 240.134 208.27 240.223 208.237C240.311 208.204 240.383 208.138 240.423 208.052C240.463 207.967 240.468 207.869 240.437 207.78C240.406 207.691 240.342 207.618 240.258 207.576C239.434 207.14 238.558 206.811 237.651 206.595C236.738 206.373 235.797 206.289 234.86 206.347C232.961 206.452 231.124 207.065 229.542 208.12C229.423 208.201 229.341 208.325 229.314 208.467C229.288 208.608 229.318 208.754 229.399 208.873C229.48 208.992 229.604 209.073 229.746 209.1C229.887 209.127 230.033 209.097 230.152 209.016L230.165 209.007L230.202 208.982Z" fill="#0C0C0C"/>
<path d="M215.192 211.056C213.326 210.685 211.394 210.822 209.599 211.452C208.712 211.757 207.875 212.195 207.118 212.749C206.363 213.295 205.68 213.935 205.085 214.652C205.023 214.723 204.99 214.816 204.995 214.911C205 215.005 205.042 215.094 205.112 215.158C205.182 215.222 205.275 215.256 205.37 215.252C205.464 215.249 205.554 215.208 205.619 215.139L205.638 215.119C206.211 214.472 206.864 213.901 207.581 213.417C208.289 212.934 209.067 212.56 209.888 212.309C211.516 211.798 213.251 211.727 214.916 212.104L214.957 212.114C215.097 212.148 215.244 212.125 215.367 212.05C215.49 211.975 215.577 211.855 215.611 211.715C215.645 211.576 215.622 211.428 215.547 211.306C215.473 211.183 215.352 211.095 215.213 211.061L215.192 211.056Z" fill="#0C0C0C"/>
<path d="M183.357 222.79C194.403 218.678 198.068 211.05 199.198 205.374C199.928 201.588 199.86 197.691 198.997 193.933L198.655 194.027C199.505 197.736 199.57 201.582 198.847 205.317C197.733 210.901 194.12 218.407 183.233 222.458L183.357 222.79Z" fill="#0C0C0C"/>
<path d="M57.5955 139.69L50.3421 116.514C50.1827 116.005 49.919 115.535 49.5678 115.133C49.2166 114.731 48.7856 114.407 48.3022 114.181C47.8189 113.955 47.2938 113.832 46.7603 113.82C46.2269 113.808 45.6968 113.907 45.2038 114.112C44.3053 114.517 43.5893 115.241 43.1945 116.144C42.7998 117.047 42.7545 118.065 43.0675 119L44.6231 123.969L32.5583 110.586C31.243 109.075 28.6586 108.061 27.064 109.649C26.4092 110.219 25.9672 110.995 25.8099 111.849C25.6527 112.703 25.7896 113.586 26.1983 114.352C26.1808 114.361 26.1644 114.371 26.1494 114.384C26.1396 114.395 26.1306 114.407 26.1224 114.419L24.0946 112.089C23.7187 111.657 23.2512 111.315 22.7262 111.087C22.2012 110.859 21.6319 110.751 21.0599 110.771C20.4879 110.791 19.9276 110.938 19.4198 111.202C18.912 111.466 18.4695 111.84 18.1246 112.297C17.5958 113.027 17.3337 113.916 17.3822 114.816C17.4308 115.716 17.787 116.572 18.3912 117.241L19.2541 118.234C19.2372 118.272 19.2271 118.313 19.2243 118.355C18.4856 117.82 17.5807 117.565 16.6714 117.636C15.7621 117.708 14.9077 118.1 14.2611 118.743C13.5744 119.467 13.1861 120.424 13.1738 121.422C13.1614 122.42 13.5259 123.386 14.1944 124.127L16.3385 126.59C16.2836 126.577 16.2264 126.577 16.1714 126.59C16.1164 126.603 16.0653 126.629 16.0223 126.666C15.9735 126.712 15.9392 126.771 15.9238 126.836C15.1337 126.543 14.2691 126.517 13.463 126.763C12.6569 127.009 11.9538 127.513 11.4618 128.197C10.9597 128.926 10.7186 129.804 10.7774 130.688C10.8362 131.571 11.1915 132.409 11.7859 133.065L29.8753 153.849C32.4064 156.756 35.7477 158.841 39.4712 159.837C43.1947 160.833 47.1308 160.695 50.7753 159.44V159.44C53.9177 158.358 56.5142 156.092 58.013 153.126C59.5119 150.159 59.795 146.725 58.8022 143.553L57.5955 139.69Z" fill="#E98862"/>
<g opacity="0.2">
<path opacity="0.2" d="M38.0738 127.658C38.0035 127.719 37.912 127.75 37.8191 127.744C37.7263 127.738 37.6395 127.696 37.5775 127.626L26.1224 114.884C26.0595 114.814 26.027 114.722 26.032 114.628C26.037 114.534 26.0791 114.446 26.149 114.383C26.219 114.321 26.3111 114.288 26.405 114.293C26.4989 114.298 26.5871 114.34 26.65 114.41L38.1064 127.152C38.1693 127.222 38.2019 127.314 38.197 127.408C38.192 127.502 38.15 127.59 38.0802 127.653L38.0738 127.658Z" fill="#0C0C0C"/>
</g>
<g opacity="0.2">
<path opacity="0.2" d="M32.5935 132.866C32.5232 132.927 32.4317 132.958 32.3388 132.952C32.246 132.946 32.1592 132.904 32.0972 132.834L19.3134 118.614C19.2505 118.544 19.218 118.452 19.2229 118.358C19.2278 118.264 19.2698 118.176 19.3397 118.113C19.411 118.053 19.5025 118.023 19.5956 118.028C19.6887 118.033 19.7764 118.073 19.8409 118.14L32.6261 132.36C32.689 132.43 32.7216 132.522 32.7167 132.616C32.7117 132.71 32.6697 132.798 32.5999 132.86L32.5935 132.866Z" fill="#0C0C0C"/>
</g>
<g opacity="0.2">
<path opacity="0.2" d="M26.6903 138.541C26.6198 138.602 26.5283 138.633 26.4354 138.626C26.3426 138.62 26.2558 138.578 26.194 138.508L15.9967 127.168C15.9338 127.098 15.9013 127.006 15.9063 126.912C15.9112 126.818 15.9533 126.73 16.0233 126.667C16.0933 126.604 16.1853 126.572 16.2793 126.577C16.3732 126.582 16.4613 126.624 16.5242 126.694L26.7236 138.038C26.7864 138.108 26.8188 138.2 26.8138 138.294C26.8087 138.388 26.7666 138.476 26.6967 138.539L26.6903 138.541Z" fill="#0C0C0C"/>
</g>
<path d="M339.679 97.7478L316.462 209.822L237.405 289.685L278.915 328.341L357.297 238.851L357.767 238.322C360.53 235.142 362.457 231.323 363.374 227.211L389.986 108.602L339.679 97.7478Z" fill="#EA394A"/>
<path d="M204.102 301.054C179.931 299.914 178.914 279.396 178.914 279.396C178.914 279.396 166.937 280.17 158.975 281.248C145.94 283.011 137.341 287.431 130.498 294.274C124.132 300.64 125.938 320.5 125.938 320.5L132.327 453.371H278.21L285.108 321.231C285.108 321.231 292.945 304.462 279.624 290.368C269.964 280.149 245.025 279.396 234.985 279.396C234.821 279.396 237.021 302.606 204.102 301.054Z" fill="#EA394A"/>
<path d="M90.5368 232.056L64.3977 138.573L14.9692 152.906L45.1859 253.55C46.5678 258.112 49.1917 262.199 52.764 265.354L53.2603 265.789L132.876 335.77L168.843 291.909L90.5368 232.056Z" fill="#EA394A"/>
<path d="M345.321 69.7263L344.125 70.5417C341.087 72.6144 337.67 74.0684 334.069 74.8204C330.469 75.5724 326.755 75.6079 323.141 74.9247C319.527 74.2416 316.083 72.8532 313.005 70.8388C309.927 68.8245 307.277 66.2236 305.204 63.1848L294.007 46.7645C293.859 46.5479 293.755 46.3043 293.702 46.0477C293.648 45.7911 293.646 45.5265 293.695 45.2689C293.743 45.0113 293.842 44.7659 293.986 44.5466C294.129 44.3273 294.315 44.1384 294.531 43.9907L338.702 13.8585C339.14 13.5602 339.678 13.4479 340.198 13.5462C340.718 13.6444 341.178 13.9452 341.477 14.3824L352.68 30.8056C354.752 33.8443 356.206 37.2614 356.958 40.862C357.71 44.4625 357.745 48.1759 357.062 51.7901C356.379 55.4043 354.99 58.8485 352.976 61.926C350.961 65.0035 348.36 67.6541 345.321 69.7263V69.7263Z" fill="#FFC239"/>
<path d="M323.231 38.1063L329.94 41.8925C329.986 41.9184 330.038 41.9327 330.09 41.9343C330.142 41.9359 330.195 41.9247 330.242 41.9017L337.165 38.5204C337.219 38.4941 337.28 38.4835 337.34 38.4897C337.4 38.4959 337.457 38.5186 337.504 38.5555C337.552 38.5923 337.589 38.6416 337.61 38.6981C337.631 38.7545 337.636 38.8157 337.625 38.8749L336.098 46.426C336.087 46.4776 336.089 46.5309 336.104 46.5815C336.119 46.632 336.145 46.6782 336.182 46.716L341.537 52.255C341.579 52.2984 341.608 52.3528 341.621 52.4119C341.633 52.471 341.629 52.5326 341.609 52.5895C341.589 52.6465 341.553 52.6966 341.505 52.7342C341.458 52.7718 341.401 52.7954 341.341 52.8023L333.687 53.6844C333.635 53.6903 333.585 53.7089 333.541 53.7386C333.498 53.7682 333.462 53.808 333.437 53.8545L329.821 60.6612C329.793 60.7145 329.75 60.7588 329.698 60.7891C329.645 60.8193 329.586 60.8344 329.525 60.8325C329.465 60.8307 329.406 60.812 329.356 60.7786C329.305 60.7452 329.265 60.6984 329.24 60.6435L326.037 53.6369C326.015 53.589 325.982 53.5471 325.941 53.5148C325.899 53.4826 325.85 53.461 325.798 53.4518L318.212 52.1181C318.152 52.1077 318.097 52.0808 318.052 52.0404C318.006 52.0001 317.974 51.9479 317.957 51.8898C317.94 51.8318 317.939 51.7701 317.956 51.7118C317.972 51.6536 318.004 51.601 318.049 51.5601L323.721 46.3488C323.759 46.3131 323.789 46.2687 323.806 46.2194C323.824 46.17 323.829 46.1171 323.822 46.0652L322.746 38.4367C322.736 38.376 322.744 38.3138 322.769 38.2574C322.793 38.201 322.833 38.1527 322.884 38.1181C322.935 38.0835 322.994 38.064 323.056 38.062C323.117 38.0599 323.178 38.0752 323.231 38.1063V38.1063Z" fill="#FAFAFA"/>
<path d="M347.148 61.6597L341.546 65.4785L340.412 66.2499L335.945 69.2987C335.945 69.2987 366.38 97.1132 364.929 130.875L378.28 121.769L379.414 120.998L393.896 111.12C361.932 100.146 347.148 61.6597 347.148 61.6597Z" fill="#FFC239"/>
<path d="M397.835 100.358L353.475 130.614C352.28 131.428 351.972 133.057 352.787 134.251L362.8 148.932C363.614 150.126 365.243 150.434 366.437 149.619L410.798 119.363C411.992 118.549 412.3 116.92 411.485 115.726L401.473 101.045C400.658 99.851 399.029 99.5432 397.835 100.358Z" fill="#FFC239"/>
<path d="M313.168 76.1184C311.024 77.586 308.527 78.456 305.935 78.6391C303.342 78.8222 300.748 78.3117 298.419 77.16C296.089 76.0084 294.108 74.2572 292.68 72.0864C291.251 69.9156 290.426 67.4035 290.29 64.8084C290.154 62.2133 290.711 59.6287 291.905 57.3204C293.099 55.0121 294.885 53.0632 297.082 51.6742C299.278 50.2851 301.805 49.506 304.402 49.4168C306.999 49.3277 309.573 49.9317 311.859 51.1669C314.067 52.3589 315.932 54.0987 317.273 56.2191C318.615 58.3396 319.388 60.7694 319.52 63.2751C319.651 65.7809 319.136 68.2783 318.024 70.5275C316.911 72.7766 315.239 74.7019 313.168 76.1184V76.1184ZM299.533 56.1947C297.819 57.365 296.535 59.0635 295.877 61.0313C295.218 62.9991 295.221 65.1282 295.884 67.0944C296.548 69.0605 297.836 70.7557 299.553 71.9217C301.269 73.0877 303.32 73.6606 305.392 73.5531C307.465 73.4455 309.445 72.6634 311.031 71.3259C312.618 69.9885 313.724 68.169 314.18 66.1447C314.637 64.1205 314.419 62.0025 313.56 60.1135C312.702 58.2244 311.249 56.668 309.423 55.6813V55.6813C307.886 54.8532 306.15 54.4632 304.406 54.5537C302.662 54.6442 300.976 55.2118 299.533 56.1947V56.1947Z" fill="#FFC239"/>
<path d="M362.698 42.3423C362.168 42.704 361.614 43.0306 361.041 43.3201C357.576 45.0699 353.559 45.3718 349.871 44.1592C346.184 42.9467 343.13 40.3191 341.38 36.8544C339.63 33.3898 339.328 29.3719 340.541 25.6847C341.753 21.9975 344.381 18.9429 347.845 17.1931C351.161 15.5195 354.99 15.1693 358.554 16.2136C362.119 17.2578 365.153 19.6182 367.042 22.8165C368.931 26.0147 369.533 29.8115 368.726 33.4373C367.92 37.063 365.765 40.2464 362.698 42.3423ZM349.068 22.4101C347.56 23.4426 346.382 24.8875 345.674 26.572C344.967 28.2565 344.759 30.1092 345.077 31.9085C345.394 33.7078 346.223 35.3776 347.465 36.7182C348.706 38.0587 350.307 39.0132 352.077 39.4676C353.847 39.922 355.71 39.8569 357.444 39.2802C359.177 38.7035 360.708 37.6396 361.853 36.2157C362.998 34.7919 363.709 33.0683 363.9 31.2512C364.091 29.4341 363.755 27.6004 362.931 25.9694V25.9694C362.368 24.8546 361.591 23.8616 360.645 23.0471C359.698 22.2326 358.6 21.6126 357.414 21.2224C356.227 20.8322 354.976 20.6796 353.73 20.7731C352.485 20.8667 351.27 21.2047 350.155 21.7677C349.779 21.9579 349.416 22.1725 349.068 22.4101V22.4101Z" fill="#FFC239"/>
<path d="M359.632 87.6046C359.228 87.0502 359.016 86.379 359.029 85.6932C359.041 85.0074 359.278 84.3445 359.702 83.8056C359.654 83.7787 359.517 83.7475 359.568 83.6638L357.208 84.8124C356.52 85.1661 355.727 85.2587 354.976 85.0731C354.225 84.8875 353.566 84.4363 353.122 83.8028C352.704 83.163 352.538 82.3908 352.657 81.6357C352.775 80.8807 353.17 80.1966 353.764 79.716C353.735 79.7067 353.72 79.6748 353.693 79.6564L352.723 80.1286C352.073 80.4591 351.329 80.5549 350.617 80.3998C349.904 80.2448 349.268 79.8484 348.814 79.2778C348.537 78.9141 348.344 78.4934 348.249 78.0461C348.154 77.5988 348.16 77.136 348.266 76.6912C348.371 76.2463 348.575 75.8305 348.861 75.4737C349.147 75.1169 349.508 74.8281 349.919 74.628L352.158 73.5382C352.15 73.5276 352.135 73.5261 352.129 73.5134C352.122 73.5006 352.129 73.4801 352.124 73.4637C351.444 73.6229 350.73 73.5464 350.099 73.2467C349.467 72.9469 348.957 72.4417 348.65 71.8138C347.753 70.2426 349.079 68.4523 350.526 67.7483L355.258 65.8835C355.988 65.5961 356.778 65.4937 357.558 65.5853C358.337 65.677 359.082 65.9599 359.725 66.4089C365.3 70.2901 379.617 80.7745 374.997 83.0229L363.623 88.5575C362.946 88.8648 362.186 88.938 361.464 88.7654C360.741 88.5929 360.096 88.1844 359.632 87.6046V87.6046Z" fill="#E98862"/>
<path d="M544.667 345.938H568.785V317.625H596.215V345.938H620.333L582.5 383.688L544.667 345.938ZM652.019 318.002C676.61 319.701 696 339.897 696 364.812C696 371.009 694.777 377.145 692.4 382.87C690.024 388.595 686.54 393.797 682.149 398.179C677.757 402.561 672.544 406.037 666.806 408.408C661.068 410.779 654.919 412 648.708 412H525.75C510.699 412 496.264 406.034 485.622 395.415C474.979 384.796 469 370.393 469 355.375C469 326.213 491.132 302.147 519.602 299.127C531.425 276.477 555.165 261 582.5 261C616.928 261 645.587 285.443 652.019 318.002ZM648.708 393.125C656.234 393.125 663.451 390.142 668.772 384.832C674.094 379.523 677.083 372.321 677.083 364.812C677.083 350.184 665.544 337.821 650.789 336.877L636.318 335.839L633.48 321.683C628.657 297.429 607.281 279.875 582.5 279.875C563.016 279.875 545.423 290.634 536.438 307.904L531.709 316.87L521.588 317.908C502.388 319.89 487.917 336.028 487.917 355.375C487.917 365.387 491.903 374.989 498.998 382.068C506.093 389.148 515.716 393.125 525.75 393.125H648.708Z" fill="#606C76"/>
</g>
<defs>
<clipPath id="clip0_303:1029">
<rect width="978.465" height="761.3" fill="white"/>
</clipPath>
</defs>
</svg>
