<svg viewBox="0 0 21 21" fill="none" xmlns="http://www.w3.org/2000/svg">
<path d="M18.1011 0.716736H2.10107C1.00107 0.716736 0.101074 1.61674 0.101074 2.71674V18.7167C0.101074 19.8267 1.00107 20.7167 2.10107 20.7167H18.1011C19.2111 20.7167 20.1011 19.8267 20.1011 18.7167V2.71674C20.1011 1.61674 19.2111 0.716736 18.1011 0.716736ZM12.8411 12.7167H13.1011V18.7167H7.10107V12.7167H7.41107C7.96107 12.7167 8.40107 12.2767 8.40107 11.7167V2.71674H11.8511V11.7167C11.8511 12.2767 12.2911 12.7167 12.8411 12.7167ZM2.10107 2.71674H4.90107V11.7167C4.90107 12.2767 5.34107 12.7167 5.89107 12.7167H6.10107V18.7167H2.10107V2.71674ZM18.1011 18.7167H14.1011V12.7167H14.3611C14.9111 12.7167 15.3511 12.2767 15.3511 11.7167V2.71674H18.1011V18.7167Z" fill="black"/>
</svg>
