<svg width="979" height="762" viewBox="0 0 979 762" fill="none" xmlns="http://www.w3.org/2000/svg">
<g clip-path="url(#clip0_218:489)">
<path d="M790.311 0H665.355V162.646H790.311V0Z" fill="#F4F4F4"/>
<path d="M790.312 162.646H794.365V0H790.312V162.646Z" fill="#F4F4F4"/>
<path opacity="0.05" d="M790.312 162.646H794.365V0H790.312V162.646Z" fill="#292A2E"/>
<path opacity="0.05" d="M767.55 29.628H688.118V133.018H767.55V29.628Z" fill="#292A2E"/>
<path opacity="0.03" d="M767.549 29.628H763.409V133.018H767.549V29.628Z" fill="#292A2E"/>
<path d="M892.506 202.643H790.312V305.775H892.506V202.643Z" fill="#F4F4F4"/>
<path opacity="0.05" d="M873.89 221.43H808.928V286.989H873.89V221.43Z" fill="#292A2E"/>
<path d="M892.506 305.775H896.559V202.643H892.506V305.775Z" fill="#F4F4F4"/>
<path opacity="0.05" d="M892.506 305.775H896.559V202.643H892.506V305.775Z" fill="#292A2E"/>
<path opacity="0.03" d="M873.89 221.43H869.75V286.989H873.89V221.43Z" fill="#292A2E"/>
<path d="M555.786 16.93H188.118V384.598H555.786V16.93Z" fill="#F4F4F4"/>
<path d="M560 16.93H555.786V384.598H560V16.93Z" fill="#F4F4F4"/>
<path opacity="0.05" d="M560 16.93H555.786V384.598H560V16.93Z" fill="#292A2E"/>
<path opacity="0.05" d="M466.717 270.283V174.089H387.92V229.976H265.863V328.93H213.987V384.598H265.863H275.857H538.1V270.283H466.717Z" fill="#292A2E"/>
<path opacity="0.34" d="M455.415 184.533H398.034V194.977H455.415V184.533Z" fill="#FFFFFA"/>
<path opacity="0.34" d="M455.415 206.177H398.034V216.621H455.415V206.177Z" fill="#FFFFFA"/>
<path opacity="0.34" d="M455.415 227.82H398.034V238.264H455.415V227.82Z" fill="#FFFFFA"/>
<path opacity="0.34" d="M527.924 280.421H517.348V290.865H527.924V280.421Z" fill="#FFFFFA"/>
<path opacity="0.34" d="M527.924 302.064H517.348V312.508H527.924V302.064Z" fill="#FFFFFA"/>
<path opacity="0.34" d="M527.924 323.708H517.348V334.152H527.924V323.708Z" fill="#FFFFFA"/>
<path opacity="0.34" d="M508.359 280.421H497.783V290.865H508.359V280.421Z" fill="#FFFFFA"/>
<path opacity="0.34" d="M508.359 302.064H497.783V312.508H508.359V302.064Z" fill="#FFFFFA"/>
<path opacity="0.34" d="M508.359 323.708H497.783V334.152H508.359V323.708Z" fill="#FFFFFA"/>
<path opacity="0.34" d="M489.322 280.421H478.746V290.865H489.322V280.421Z" fill="#FFFFFA"/>
<path opacity="0.34" d="M489.322 302.064H478.746V312.508H489.322V302.064Z" fill="#FFFFFA"/>
<path opacity="0.34" d="M489.322 323.708H478.746V334.152H489.322V323.708Z" fill="#FFFFFA"/>
<path d="M555.786 198.701H481.805V16.93H475.687V198.701H275.857V16.93H269.738V198.701H188.118V204.82H269.738V384.598H275.857V204.82H475.687V384.598H481.805V204.82H555.786V198.701Z" fill="white"/>
<path d="M570.432 384.154H173.471V396.381H570.432V384.154Z" fill="#F4F4F4"/>
<path opacity="0.1" d="M570.432 384.154H173.471V396.381H570.432V384.154Z" fill="#292A2E"/>
<path opacity="0.1" d="M576.164 384.154H570.433V396.381H576.164V384.154Z" fill="#292A2E"/>
<path opacity="0.1" d="M576.164 384.154H570.433V396.381H576.164V384.154Z" fill="#292A2E"/>
<path opacity="0.05" d="M747.449 745.306H726.446V759.332H747.449V745.306Z" fill="#292A2E"/>
<path opacity="0.05" d="M879.298 745.306H858.295V759.332H879.298V745.306Z" fill="#292A2E"/>
<path d="M898.551 531.599H707.194V745.306H898.551V531.599Z" fill="#F4F4F4"/>
<path opacity="0.03" d="M898.551 531.599H707.194V745.306H898.551V531.599Z" fill="#292A2E"/>
<path d="M847.729 531.599H656.372V745.306H847.729V531.599Z" fill="#F4F4F4"/>
<path opacity="0.05" d="M696.628 745.306H675.625V759.332H696.628V745.306Z" fill="#292A2E"/>
<path opacity="0.05" d="M828.477 745.306H807.474V759.332H828.477V745.306Z" fill="#292A2E"/>
<path opacity="0.7" d="M837.434 544.812H666.667V599.014H837.434V544.812Z" fill="white"/>
<path opacity="0.7" d="M837.434 612.281H666.667V666.483H837.434V612.281Z" fill="white"/>
<path opacity="0.7" d="M837.434 679.748H666.667V733.95H837.434V679.748Z" fill="white"/>
<path opacity="0.05" d="M752.05 579.497C756.239 579.497 759.634 576.102 759.634 571.913C759.634 567.724 756.239 564.329 752.05 564.329C747.862 564.329 744.466 567.724 744.466 571.913C744.466 576.102 747.862 579.497 752.05 579.497Z" fill="#292A2E"/>
<path opacity="0.05" d="M752.05 646.966C756.239 646.966 759.634 643.571 759.634 639.382C759.634 635.193 756.239 631.798 752.05 631.798C747.862 631.798 744.466 635.193 744.466 639.382C744.466 643.571 747.862 646.966 752.05 646.966Z" fill="#292A2E"/>
<path opacity="0.05" d="M752.05 714.434C756.239 714.434 759.634 711.039 759.634 706.85C759.634 702.661 756.239 699.266 752.05 699.266C747.862 699.266 744.466 702.661 744.466 706.85C744.466 711.039 747.862 714.434 752.05 714.434Z" fill="#292A2E"/>
<path d="M706.457 80.634H456.96C436.32 80.634 419.588 97.366 419.588 118.006V704.517C419.588 725.157 436.32 741.889 456.96 741.889H706.457C727.097 741.889 743.829 725.157 743.829 704.517V118.006C743.829 97.366 727.097 80.634 706.457 80.634Z" fill="#292A2E"/>
<path d="M706.34 92.304H457.077C442.904 92.304 431.415 103.793 431.415 117.966V703.685C431.415 717.858 442.904 729.347 457.077 729.347H706.34C720.513 729.347 732.002 717.858 732.002 703.685V117.966C732.002 103.793 720.513 92.304 706.34 92.304Z" fill="white"/>
<path d="M471.049 159.816C470.734 163.154 469.502 165.76 467.354 167.637C465.205 169.499 462.348 170.43 458.781 170.43C456.289 170.43 454.09 169.842 452.186 168.668C450.295 167.479 448.834 165.796 447.803 163.619C446.771 161.442 446.234 158.914 446.191 156.035V153.113C446.191 150.163 446.714 147.563 447.76 145.314C448.805 143.066 450.302 141.333 452.25 140.115C454.212 138.898 456.475 138.289 459.039 138.289C462.491 138.289 465.27 139.227 467.375 141.104C469.48 142.98 470.705 145.63 471.049 149.053H465.635C465.377 146.804 464.718 145.186 463.658 144.197C462.613 143.195 461.073 142.693 459.039 142.693C456.676 142.693 454.857 143.56 453.582 145.293C452.322 147.012 451.677 149.54 451.648 152.877V155.648C451.648 159.029 452.25 161.607 453.453 163.383C454.671 165.159 456.447 166.047 458.781 166.047C460.915 166.047 462.52 165.567 463.594 164.607C464.668 163.648 465.348 162.051 465.635 159.816H471.049ZM474.443 158.162C474.443 155.885 474.895 153.837 475.797 152.018C476.699 150.184 477.967 148.781 479.6 147.807C481.232 146.818 483.109 146.324 485.229 146.324C488.365 146.324 490.908 147.334 492.855 149.354C494.818 151.373 495.878 154.051 496.035 157.389L496.057 158.613C496.057 160.905 495.613 162.953 494.725 164.758C493.851 166.562 492.59 167.959 490.943 168.947C489.311 169.936 487.42 170.43 485.271 170.43C481.992 170.43 479.363 169.341 477.387 167.164C475.424 164.973 474.443 162.058 474.443 158.42V158.162ZM479.664 158.613C479.664 161.005 480.158 162.882 481.146 164.242C482.135 165.589 483.51 166.262 485.271 166.262C487.033 166.262 488.401 165.574 489.375 164.199C490.363 162.824 490.857 160.812 490.857 158.162C490.857 155.813 490.349 153.951 489.332 152.576C488.329 151.201 486.962 150.514 485.229 150.514C483.524 150.514 482.171 151.194 481.168 152.555C480.165 153.901 479.664 155.921 479.664 158.613ZM505.316 146.754L505.467 149.439C507.186 147.363 509.441 146.324 512.234 146.324C517.076 146.324 519.539 149.096 519.625 154.639V170H514.404V154.939C514.404 153.464 514.082 152.376 513.438 151.674C512.807 150.958 511.769 150.6 510.322 150.6C508.217 150.6 506.648 151.552 505.617 153.457V170H500.396V146.754H505.316ZM526.35 170V150.621H522.805V146.754H526.35V145.164C526.364 143.345 526.751 141.784 527.51 140.48C528.269 139.177 529.343 138.196 530.732 137.537C532.122 136.878 533.79 136.549 535.738 136.549C536.884 136.549 537.98 136.671 539.025 136.914C540.085 137.158 541.181 137.465 542.312 137.838L541.518 142.156C539.541 141.469 537.736 141.125 536.104 141.125C534.514 141.125 533.361 141.476 532.645 142.178C531.928 142.865 531.57 143.904 531.57 145.293V146.754H536.146V150.621H531.57V170H526.35ZM544.783 170H539.562V146.754H544.783V170ZM549.66 158.205C549.66 154.596 550.505 151.717 552.195 149.568C553.9 147.406 556.156 146.324 558.963 146.324C561.613 146.324 563.697 147.248 565.215 149.096L565.451 146.754H570.156V169.291C570.156 172.342 569.204 174.748 567.299 176.51C565.408 178.271 562.852 179.152 559.629 179.152C557.924 179.152 556.256 178.794 554.623 178.078C553.005 177.376 551.773 176.452 550.928 175.307L553.398 172.17C555.003 174.075 556.979 175.027 559.328 175.027C561.061 175.027 562.429 174.555 563.432 173.609C564.434 172.678 564.936 171.303 564.936 169.484V167.916C563.432 169.592 561.426 170.43 558.92 170.43C556.199 170.43 553.971 169.348 552.238 167.186C550.52 165.023 549.66 162.029 549.66 158.205ZM554.859 158.656C554.859 160.991 555.332 162.831 556.277 164.178C557.237 165.51 558.562 166.176 560.252 166.176C562.357 166.176 563.919 165.273 564.936 163.469V153.242C563.947 151.48 562.4 150.6 560.295 150.6C558.576 150.6 557.237 151.28 556.277 152.641C555.332 154.001 554.859 156.007 554.859 158.656ZM589.621 167.723C588.089 169.527 585.911 170.43 583.09 170.43C580.569 170.43 578.657 169.692 577.354 168.217C576.064 166.742 575.42 164.607 575.42 161.814V146.754H580.641V161.75C580.641 164.701 581.865 166.176 584.314 166.176C586.85 166.176 588.561 165.266 589.449 163.447V146.754H594.67V170H589.75L589.621 167.723ZM612.158 151.523C611.471 151.409 610.762 151.352 610.031 151.352C607.639 151.352 606.028 152.268 605.197 154.102V170H599.977V146.754H604.961L605.09 149.354C606.35 147.334 608.098 146.324 610.332 146.324C611.077 146.324 611.693 146.424 612.18 146.625L612.158 151.523ZM628.701 170C628.472 169.556 628.271 168.833 628.1 167.83C626.438 169.563 624.404 170.43 621.998 170.43C619.663 170.43 617.758 169.764 616.283 168.432C614.808 167.1 614.07 165.452 614.07 163.49C614.07 161.012 614.987 159.115 616.82 157.797C618.668 156.465 621.303 155.799 624.727 155.799H627.928V154.273C627.928 153.07 627.591 152.111 626.918 151.395C626.245 150.664 625.221 150.299 623.846 150.299C622.657 150.299 621.683 150.6 620.924 151.201C620.165 151.788 619.785 152.54 619.785 153.457H614.564C614.564 152.182 614.987 150.993 615.832 149.891C616.677 148.773 617.823 147.9 619.27 147.27C620.73 146.639 622.356 146.324 624.146 146.324C626.868 146.324 629.038 147.012 630.656 148.387C632.275 149.747 633.105 151.667 633.148 154.145V164.629C633.148 166.72 633.442 168.389 634.029 169.635V170H628.701ZM622.965 166.24C623.996 166.24 624.963 165.99 625.865 165.488C626.782 164.987 627.469 164.314 627.928 163.469V159.086H625.113C623.18 159.086 621.726 159.423 620.752 160.096C619.778 160.769 619.291 161.721 619.291 162.953C619.291 163.956 619.62 164.758 620.279 165.359C620.952 165.947 621.848 166.24 622.965 166.24ZM645.158 141.104V146.754H649.262V150.621H645.158V163.598C645.158 164.486 645.33 165.13 645.674 165.531C646.032 165.918 646.662 166.111 647.564 166.111C648.166 166.111 648.775 166.04 649.391 165.896V169.936C648.202 170.265 647.056 170.43 645.953 170.43C641.943 170.43 639.938 168.217 639.938 163.791V150.621H636.113V146.754H639.938V141.104H645.158ZM658.822 170H653.602V146.754H658.822V170ZM653.279 140.717C653.279 139.915 653.53 139.249 654.031 138.719C654.547 138.189 655.277 137.924 656.223 137.924C657.168 137.924 657.898 138.189 658.414 138.719C658.93 139.249 659.188 139.915 659.188 140.717C659.188 141.505 658.93 142.163 658.414 142.693C657.898 143.209 657.168 143.467 656.223 143.467C655.277 143.467 654.547 143.209 654.031 142.693C653.53 142.163 653.279 141.505 653.279 140.717ZM663.549 158.162C663.549 155.885 664 153.837 664.902 152.018C665.805 150.184 667.072 148.781 668.705 147.807C670.338 146.818 672.214 146.324 674.334 146.324C677.471 146.324 680.013 147.334 681.961 149.354C683.923 151.373 684.983 154.051 685.141 157.389L685.162 158.613C685.162 160.905 684.718 162.953 683.83 164.758C682.956 166.562 681.696 167.959 680.049 168.947C678.416 169.936 676.525 170.43 674.377 170.43C671.097 170.43 668.469 169.341 666.492 167.164C664.53 164.973 663.549 162.058 663.549 158.42V158.162ZM668.77 158.613C668.77 161.005 669.264 162.882 670.252 164.242C671.24 165.589 672.615 166.262 674.377 166.262C676.139 166.262 677.507 165.574 678.48 164.199C679.469 162.824 679.963 160.812 679.963 158.162C679.963 155.813 679.454 153.951 678.438 152.576C677.435 151.201 676.067 150.514 674.334 150.514C672.63 150.514 671.276 151.194 670.273 152.555C669.271 153.901 668.77 155.921 668.77 158.613ZM694.422 146.754L694.572 149.439C696.291 147.363 698.547 146.324 701.34 146.324C706.181 146.324 708.645 149.096 708.73 154.639V170H703.51V154.939C703.51 153.464 703.188 152.376 702.543 151.674C701.913 150.958 700.874 150.6 699.428 150.6C697.322 150.6 695.754 151.552 694.723 153.457V170H689.502V146.754H694.422Z" fill="#EA394A"/>
<path d="M520.146 87.478H643.271V100.218C643.272 102.028 642.916 103.82 642.224 105.492C641.532 107.164 640.517 108.683 639.238 109.963C637.958 111.243 636.439 112.258 634.767 112.951C633.096 113.644 631.304 114 629.494 114H533.923C530.269 114 526.765 112.549 524.181 109.965C521.598 107.381 520.146 103.877 520.146 100.223V87.478Z" fill="#292A2E"/>
<path opacity="0.8" d="M653.005 628.637H510.413C502.011 628.637 495.2 635.448 495.2 643.85V684.7C495.2 693.102 502.011 699.913 510.413 699.913H653.005C661.407 699.913 668.218 693.102 668.218 684.7V643.85C668.218 635.448 661.407 628.637 653.005 628.637Z" fill="#EA394A"/>
<path d="M668.212 684.7V691.7C668.212 693.698 667.819 695.676 667.055 697.522C666.29 699.367 665.17 701.045 663.757 702.457C662.344 703.87 660.667 704.99 658.822 705.755C656.976 706.519 654.998 706.912 653 706.912H510.412C508.414 706.912 506.436 706.519 504.59 705.755C502.745 704.99 501.067 703.87 499.655 702.457C498.242 701.045 497.122 699.367 496.357 697.522C495.593 695.676 495.2 693.698 495.2 691.7V684.7C495.2 688.734 496.802 692.603 499.655 695.455C502.507 698.308 506.376 699.91 510.41 699.91H653C654.998 699.91 656.976 699.517 658.821 698.753C660.667 697.989 662.344 696.868 663.756 695.456C665.169 694.043 666.289 692.367 667.054 690.521C667.818 688.676 668.212 686.698 668.212 684.7Z" fill="#EA394A"/>
<path d="M572.2 685.331C571.604 685.331 571.027 685.119 570.574 684.731L554.253 670.744C553.749 670.313 553.437 669.699 553.386 669.037C553.335 668.376 553.549 667.721 553.98 667.217C554.412 666.713 555.026 666.401 555.687 666.35C556.348 666.299 557.003 666.512 557.507 666.944L571.989 679.356L605.689 642.485C606.136 641.996 606.76 641.704 607.422 641.674C608.085 641.644 608.732 641.879 609.221 642.326C609.711 642.773 610.002 643.397 610.032 644.059C610.062 644.721 609.827 645.369 609.38 645.858L574.049 684.516C573.815 684.773 573.529 684.978 573.211 685.119C572.892 685.259 572.548 685.331 572.2 685.331Z" fill="white"/>
<rect x="444" y="416" width="275" height="89" rx="13" fill="#EA394A" fill-opacity="0.4" stroke="#606C76" stroke-width="2"/>
<rect x="444" y="306" width="275" height="89" rx="13" fill="#EA394A" fill-opacity="0.4" stroke="#606C76" stroke-width="2"/>
<rect x="444" y="196" width="275" height="89" rx="13" fill="#EA394A" stroke="#606C76" stroke-width="2"/>
<path d="M526 211.191H458C456.154 211.191 452.937 213.923 452.937 217.294C452.937 220.664 456.154 223.397 458 223.397H526C527.846 223.397 531.096 220.664 531.096 217.294C531.096 213.923 527.846 211.191 526 211.191Z" fill="white"/>
<path d="M587.374 271.298H452.936C452.826 271.298 452.721 271.218 452.644 271.077C452.566 270.935 452.523 270.743 452.523 270.543C452.523 270.343 452.566 270.151 452.644 270.01C452.721 269.868 452.826 269.789 452.936 269.789H587.374C587.484 269.789 587.589 269.868 587.666 270.01C587.744 270.151 587.787 270.343 587.787 270.543C587.787 270.743 587.744 270.935 587.666 271.077C587.589 271.218 587.484 271.298 587.374 271.298Z" fill="white"/>
<path d="M708.05 255.259H452.936C452.826 255.259 452.721 255.18 452.644 255.038C452.566 254.897 452.523 254.705 452.523 254.505C452.523 254.305 452.566 254.113 452.644 253.971C452.721 253.83 452.826 253.75 452.936 253.75H708.05C708.159 253.75 708.264 253.83 708.342 253.971C708.419 254.113 708.463 254.305 708.463 254.505C708.463 254.705 708.419 254.897 708.342 255.038C708.264 255.18 708.159 255.259 708.05 255.259Z" fill="white"/>
<path d="M708.05 239.22H452.936C452.826 239.22 452.721 239.141 452.644 238.999C452.566 238.858 452.523 238.666 452.523 238.466C452.523 238.265 452.566 238.074 452.644 237.932C452.721 237.79 452.826 237.711 452.936 237.711H708.05C708.159 237.711 708.264 237.79 708.342 237.932C708.419 238.074 708.463 238.265 708.463 238.466C708.463 238.666 708.419 238.858 708.342 238.999C708.264 239.141 708.159 239.22 708.05 239.22Z" fill="white"/>
<path d="M891.407 630.159C891.142 630.159 890.887 630.054 890.7 629.866C889.291 628.458 886.994 602.608 880.808 525.644C878.277 494.151 875.886 464.405 874.141 446.328C874.017 445.037 873.516 444.886 873.352 444.837C870.966 444.128 863.699 449.844 859.645 454.86C859.478 455.066 859.236 455.198 858.972 455.226C858.708 455.254 858.444 455.176 858.238 455.009C858.032 454.842 857.9 454.6 857.872 454.336C857.844 454.072 857.922 453.808 858.089 453.602C860.771 450.286 869.507 441.602 873.927 442.921C874.818 443.189 875.927 443.964 876.133 446.136C877.879 464.229 880.27 493.983 882.802 525.484C886.561 572.253 890.82 625.238 892.219 628.575C892.326 628.724 892.391 628.901 892.404 629.084C892.418 629.268 892.381 629.451 892.297 629.615C892.213 629.779 892.086 629.916 891.929 630.012C891.771 630.108 891.591 630.159 891.407 630.159Z" fill="#494949"/>
<path d="M871.572 479.499C888.166 466.197 893.665 445.494 883.856 433.257C874.047 421.019 852.643 421.881 836.049 435.183C819.455 448.484 813.955 469.187 823.765 481.425C833.574 493.662 854.978 492.8 871.572 479.499Z" fill="#0CBC8B"/>
<path opacity="0.2" d="M871.572 479.499C888.166 466.197 893.665 445.494 883.856 433.257C874.047 421.019 852.643 421.881 836.049 435.183C819.455 448.484 813.955 469.187 823.765 481.425C833.574 493.662 854.978 492.8 871.572 479.499Z" fill="white"/>
<path d="M828.417 484.538C828.322 484.538 828.229 484.511 828.148 484.46C828.068 484.409 828.004 484.337 827.964 484.251C827.923 484.164 827.908 484.069 827.92 483.974C827.932 483.88 827.971 483.791 828.032 483.718L875.323 426.69C875.365 426.64 875.416 426.598 875.475 426.567C875.533 426.536 875.596 426.518 875.662 426.511C875.727 426.505 875.793 426.512 875.856 426.532C875.919 426.551 875.977 426.583 876.028 426.625C876.078 426.667 876.12 426.718 876.151 426.776C876.181 426.834 876.2 426.898 876.206 426.963C876.212 427.029 876.205 427.095 876.186 427.157C876.167 427.22 876.135 427.279 876.093 427.329L828.8 484.357C828.753 484.413 828.695 484.459 828.629 484.49C828.562 484.521 828.49 484.538 828.417 484.538Z" fill="white"/>
<path d="M901.721 617.933C901.609 617.933 901.498 617.915 901.393 617.877C901.143 617.79 900.937 617.607 900.822 617.369C900.706 617.13 900.69 616.855 900.777 616.605L918.541 565.518C919.064 564.017 919.955 562.671 921.133 561.604C922.311 560.536 923.738 559.782 925.283 559.409C926.828 559.036 928.443 559.057 929.978 559.469C931.513 559.882 932.92 560.673 934.07 561.77L943.461 570.742C943.559 570.832 943.639 570.941 943.695 571.062C943.75 571.183 943.781 571.313 943.786 571.447C943.79 571.58 943.768 571.712 943.721 571.837C943.673 571.961 943.601 572.075 943.509 572.171C943.417 572.268 943.307 572.345 943.184 572.398C943.062 572.451 942.931 572.479 942.797 572.48C942.664 572.482 942.532 572.456 942.409 572.406C942.285 572.356 942.173 572.281 942.079 572.187L932.688 563.215C931.78 562.349 930.669 561.725 929.457 561.399C928.246 561.073 926.971 561.057 925.752 561.351C924.532 561.646 923.405 562.242 922.475 563.084C921.546 563.927 920.842 564.989 920.429 566.174L902.666 617.261C902.598 617.457 902.47 617.628 902.301 617.748C902.131 617.869 901.929 617.933 901.721 617.933Z" fill="#494949"/>
<path d="M969.701 599.026C981.999 589.292 981.268 567.883 968.069 551.208C954.87 534.533 934.201 528.906 921.903 538.64C909.605 548.374 910.336 569.782 923.535 586.458C936.734 603.133 957.403 608.76 969.701 599.026Z" fill="#0CBC8B"/>
<path d="M883.337 626.9C883.112 626.9 882.894 626.824 882.718 626.685C882.541 626.545 882.417 626.351 882.365 626.132L852.554 501.489C852.35 500.639 851.916 499.862 851.3 499.244C850.683 498.625 849.908 498.188 849.059 497.981C848.21 497.774 847.32 497.806 846.488 498.072C845.656 498.338 844.913 498.828 844.342 499.489L835.153 510.1C835.067 510.199 834.962 510.281 834.845 510.34C834.728 510.399 834.6 510.434 834.469 510.443C834.338 510.453 834.206 510.436 834.081 510.395C833.957 510.353 833.841 510.288 833.742 510.202C833.643 510.116 833.561 510.011 833.502 509.894C833.443 509.777 833.408 509.649 833.399 509.518C833.389 509.387 833.406 509.255 833.447 509.13C833.489 509.006 833.554 508.89 833.64 508.791L842.829 498.172C843.642 497.233 844.698 496.537 845.881 496.159C847.064 495.782 848.328 495.738 849.534 496.032C850.74 496.327 851.842 496.948 852.718 497.828C853.594 498.708 854.211 499.812 854.5 501.02L884.31 625.665C884.372 625.923 884.328 626.195 884.189 626.421C884.051 626.647 883.828 626.808 883.57 626.87C883.494 626.889 883.416 626.899 883.337 626.9Z" fill="#494949"/>
<path d="M872.342 537.798C875.966 516.842 866.376 497.688 850.921 495.015C835.467 492.343 820.001 507.164 816.377 528.12C812.753 549.076 822.344 568.231 837.798 570.903C853.253 573.576 868.718 558.754 872.342 537.798Z" fill="#0CBC8B"/>
<path d="M891.408 630.159C891.367 630.159 891.326 630.157 891.285 630.151C891.022 630.119 890.782 629.983 890.619 629.774C890.456 629.565 890.382 629.3 890.414 629.037L909.45 474.479C909.657 472.795 910.346 471.207 911.435 469.906C912.523 468.604 913.964 467.645 915.585 467.143C917.205 466.641 918.936 466.618 920.57 467.076C922.203 467.535 923.669 468.455 924.792 469.727L946.55 494.37C946.726 494.569 946.815 494.829 946.798 495.094C946.782 495.359 946.661 495.606 946.462 495.782C946.363 495.869 946.249 495.936 946.125 495.978C946 496.021 945.869 496.039 945.738 496.03C945.473 496.014 945.226 495.893 945.05 495.694L923.292 471.051C922.424 470.068 921.291 469.357 920.029 469.003C918.767 468.648 917.429 468.666 916.177 469.054C914.924 469.442 913.81 470.183 912.969 471.189C912.128 472.195 911.595 473.422 911.435 474.723L892.4 629.281C892.37 629.523 892.253 629.746 892.07 629.908C891.888 630.07 891.652 630.159 891.408 630.159Z" fill="#494949"/>
<path d="M968.865 508.064C976.457 494.339 967.525 474.869 948.915 464.575C930.306 454.281 909.066 457.062 901.474 470.786C893.883 484.511 902.815 503.981 921.424 514.275C940.034 524.568 961.274 521.788 968.865 508.064Z" fill="#0CBC8B"/>
<path opacity="0.2" d="M969.701 599.026C981.999 589.292 981.268 567.883 968.069 551.208C954.87 534.533 934.201 528.906 921.903 538.64C909.605 548.374 910.336 569.782 923.535 586.458C936.734 603.133 957.403 608.76 969.701 599.026Z" fill="white"/>
<path opacity="0.5" d="M872.342 537.798C875.966 516.842 866.376 497.688 850.921 495.015C835.467 492.343 820.001 507.164 816.377 528.12C812.753 549.076 822.344 568.231 837.798 570.903C853.253 573.576 868.718 558.754 872.342 537.798Z" fill="white"/>
<path opacity="0.5" d="M968.865 508.064C976.457 494.339 967.525 474.869 948.915 464.575C930.306 454.281 909.066 457.062 901.474 470.786C893.883 484.511 902.815 503.981 921.424 514.275C940.034 524.568 961.274 521.788 968.865 508.064Z" fill="white"/>
<path d="M915.755 761.3H867.059L858.989 605.496H923.824L915.755 761.3Z" fill="#292A2E"/>
<path opacity="0.3" d="M915.755 761.3H867.059L858.989 605.496H923.824L915.755 761.3Z" fill="white"/>
<path d="M969.7 599.52C969.625 599.52 969.55 599.503 969.482 599.47C969.414 599.438 969.355 599.39 969.308 599.331L921.508 538.944C921.467 538.892 921.437 538.833 921.419 538.77C921.401 538.707 921.396 538.641 921.403 538.576C921.411 538.511 921.431 538.447 921.463 538.39C921.495 538.333 921.538 538.282 921.589 538.241C921.641 538.201 921.7 538.17 921.763 538.153C921.826 538.135 921.892 538.129 921.958 538.137C922.023 538.144 922.086 538.165 922.143 538.197C922.201 538.229 922.251 538.271 922.292 538.323L970.092 598.71C970.15 598.784 970.186 598.872 970.197 598.966C970.207 599.059 970.191 599.153 970.15 599.238C970.109 599.322 970.045 599.394 969.965 599.444C969.886 599.493 969.794 599.52 969.7 599.52Z" fill="white"/>
<path d="M965.687 512.9C965.58 512.899 965.477 512.864 965.392 512.8L904.226 468.139C904.173 468.1 904.128 468.051 904.094 467.995C904.06 467.939 904.037 467.877 904.027 467.812C904.017 467.747 904.019 467.681 904.035 467.617C904.05 467.553 904.078 467.493 904.117 467.44C904.156 467.387 904.205 467.342 904.261 467.308C904.317 467.274 904.379 467.251 904.444 467.241C904.509 467.231 904.575 467.233 904.639 467.249C904.703 467.264 904.763 467.292 904.816 467.331L965.982 512C966.066 512.063 966.128 512.15 966.159 512.25C966.19 512.349 966.19 512.456 966.157 512.556C966.125 512.655 966.062 512.742 965.977 512.803C965.893 512.865 965.792 512.899 965.687 512.9Z" fill="white"/>
<path d="M835.312 570.251C835.268 570.251 835.225 570.245 835.183 570.234C835.055 570.2 834.946 570.116 834.879 570.001C834.813 569.887 834.795 569.75 834.829 569.622L854.3 496.669C854.336 496.542 854.419 496.434 854.533 496.368C854.647 496.301 854.783 496.282 854.911 496.314C855.039 496.348 855.148 496.432 855.215 496.547C855.281 496.662 855.299 496.798 855.265 496.926L835.8 569.879C835.771 569.987 835.708 570.081 835.62 570.149C835.531 570.216 835.423 570.252 835.312 570.251Z" fill="white"/>
<path d="M953.263 761.3H0.737043C0.638042 761.304 0.53932 761.287 0.44678 761.252C0.35424 761.217 0.26978 761.163 0.198449 761.094C0.127118 761.025 0.0703808 760.943 0.0316274 760.852C-0.007126 760.761 -0.0270996 760.663 -0.0270996 760.563C-0.0270996 760.464 -0.007126 760.366 0.0316274 760.275C0.0703808 760.184 0.127118 760.102 0.198449 760.033C0.26978 759.964 0.35424 759.91 0.44678 759.875C0.53932 759.84 0.638042 759.823 0.737043 759.827H953.263C953.362 759.823 953.461 759.84 953.553 759.875C953.646 759.91 953.73 759.964 953.802 760.033C953.873 760.102 953.93 760.184 953.969 760.275C954.007 760.366 954.027 760.464 954.027 760.563C954.027 760.663 954.007 760.761 953.969 760.852C953.93 760.943 953.873 761.025 953.802 761.094C953.73 761.163 953.646 761.217 953.553 761.252C953.461 761.287 953.362 761.304 953.263 761.3Z" fill="#292A2E"/>
<path d="M208.024 695.069C208.024 695.069 192.58 717.8 206.268 734.165C219.957 750.53 204.445 758.81 204.445 758.81L148.609 699.592L178.193 671.696L208.024 695.069Z" fill="#EA394A"/>
<path d="M289.076 329.595C289.076 329.595 341.209 508.906 328.922 535.117C316.842 560.889 206.587 711.435 206.587 711.435L166.937 676.882L265 517.852C265 517.852 235.971 426.014 220.277 377.851C210.817 348.817 194.899 349.742 193.386 319.243L289.076 329.595Z" fill="#262626"/>
<path d="M231.351 531.733L244.247 517.047L240.891 603.255L226.517 616.917L231.351 531.733Z" fill="#0A0A0A"/>
<path d="M229.215 405.454C229.215 405.454 223.04 368.801 229.644 376.652C251.117 402.179 253.255 480.733 253.255 480.733L229.215 405.454Z" fill="#0A0A0A"/>
<path d="M265.289 715.575C265.289 715.575 269.678 738.322 290.979 739.589C312.281 740.857 307.658 757.824 307.658 757.824H226.266V717.161L265.289 715.575Z" fill="#EA394A"/>
<path d="M143.771 325.102C143.771 325.102 143.41 323.426 143.2 333.226C143.049 340.146 140.238 364.64 149.955 403.273C168.157 475.655 222.677 730.092 222.677 730.092L276.158 729.643L225.724 322.878L143.771 325.102Z" fill="#262626"/>
<path d="M142.943 325.396L142.768 325.405C142.768 325.405 142.894 322.036 142.943 325.396Z" fill="#333333"/>
<path d="M435.696 165.063C435.374 164.425 434.862 163.904 434.231 163.57C433.601 163.235 432.881 163.105 432.173 163.197C432.18 163.135 432.166 163.071 432.134 163.016C432.101 162.974 432.058 162.941 432.008 162.921C431.959 162.901 431.904 162.894 431.851 162.901L434.241 161.189C434.955 160.699 435.468 159.968 435.685 159.13C435.903 158.292 435.81 157.403 435.423 156.628C435.016 155.875 434.344 155.3 433.537 155.014C432.729 154.729 431.845 154.753 431.054 155.083C431.06 155.05 431.037 155.017 431.032 154.983L432.011 154.279C432.683 153.815 433.173 153.134 433.4 152.35C433.627 151.566 433.575 150.728 433.255 149.977C433.044 149.511 432.733 149.097 432.343 148.766C431.953 148.434 431.494 148.194 431 148.061C430.506 147.928 429.988 147.907 429.484 147.999C428.981 148.09 428.504 148.292 428.088 148.591L425.823 150.214C425.817 150.201 425.823 150.185 425.814 150.173C425.806 150.161 425.781 150.156 425.768 150.142C426.288 149.557 426.594 148.812 426.635 148.031C426.676 147.249 426.451 146.476 425.996 145.84C424.926 144.119 422.458 144.47 420.993 145.52L407.66 154.73L410.043 150.718C410.523 149.946 410.692 149.02 410.516 148.129C410.34 147.237 409.832 146.445 409.095 145.913C408.704 145.652 408.265 145.473 407.804 145.387C407.342 145.301 406.868 145.311 406.41 145.414C405.952 145.518 405.52 145.714 405.14 145.99C404.76 146.266 404.441 146.616 404.201 147.02L391.195 168.924C389.669 171.493 389.204 174.557 389.901 177.464C390.597 180.371 392.4 182.891 394.925 184.49C397.854 186.345 401.27 187.283 404.735 187.183C408.2 187.083 411.557 185.951 414.375 183.932L434.509 169.5C435.178 169.002 435.659 168.293 435.874 167.488C436.09 166.682 436.027 165.828 435.696 165.063V165.063Z" fill="#E98862"/>
<g opacity="0.25">
<path opacity="0.25" d="M412.632 159.313C412.681 159.38 412.755 159.426 412.837 159.44C412.919 159.454 413.003 159.435 413.072 159.388L425.74 150.613C425.775 150.589 425.804 150.559 425.827 150.524C425.849 150.488 425.865 150.449 425.872 150.408C425.88 150.367 425.879 150.324 425.87 150.283C425.861 150.242 425.844 150.204 425.821 150.169C425.797 150.135 425.766 150.105 425.731 150.083C425.696 150.06 425.656 150.045 425.615 150.037C425.574 150.03 425.532 150.03 425.491 150.039C425.45 150.048 425.411 150.065 425.376 150.089L412.708 158.864C412.674 158.887 412.644 158.918 412.622 158.953C412.599 158.988 412.583 159.027 412.576 159.068C412.568 159.11 412.569 159.152 412.577 159.193C412.586 159.234 412.603 159.273 412.627 159.307L412.632 159.313Z" fill="#0C0C0C"/>
</g>
<g opacity="0.25">
<path opacity="0.25" d="M416.348 165.007C416.397 165.074 416.471 165.12 416.553 165.134C416.635 165.147 416.719 165.129 416.788 165.081L430.925 155.289C430.96 155.265 430.989 155.235 431.012 155.2C431.035 155.164 431.051 155.125 431.058 155.084C431.066 155.043 431.065 155.001 431.056 154.96C431.048 154.919 431.031 154.88 431.007 154.845C430.957 154.778 430.884 154.732 430.801 154.717C430.719 154.702 430.634 154.719 430.563 154.764L416.426 164.556C416.391 164.58 416.362 164.61 416.339 164.645C416.316 164.681 416.3 164.72 416.293 164.761C416.285 164.802 416.286 164.845 416.295 164.886C416.303 164.927 416.32 164.965 416.344 165L416.348 165.007Z" fill="#0C0C0C"/>
</g>
<g opacity="0.25">
<path opacity="0.25" d="M420.337 171.197C420.386 171.265 420.46 171.31 420.542 171.324C420.624 171.338 420.708 171.319 420.777 171.272L432.054 163.461C432.124 163.413 432.171 163.339 432.187 163.255C432.202 163.172 432.183 163.086 432.135 163.017C432.086 162.947 432.013 162.9 431.929 162.885C431.846 162.87 431.76 162.888 431.691 162.936L420.413 170.747C420.378 170.771 420.349 170.801 420.326 170.836C420.303 170.872 420.288 170.911 420.28 170.952C420.273 170.993 420.273 171.036 420.282 171.077C420.291 171.117 420.308 171.156 420.331 171.191L420.337 171.197Z" fill="#0C0C0C"/>
</g>
<path d="M383.517 163.934L345.303 229.016L298.675 167.857L259.949 202.768L326.081 288.412L326.515 289.021C329.162 292.647 332.688 295.539 336.762 297.424C340.835 299.31 345.322 300.128 349.799 299.8C354.276 299.473 358.596 298.01 362.351 295.552C366.107 293.093 369.175 289.718 371.265 285.746L425.606 187.341L383.517 163.934Z" fill="#EA394A"/>
<path d="M341.557 236.842C341.474 236.842 341.392 236.821 341.319 236.78C341.247 236.74 341.186 236.681 341.143 236.61C341.099 236.539 341.075 236.458 341.072 236.375C341.068 236.292 341.087 236.21 341.124 236.136L344.87 228.796C344.937 228.697 345.038 228.627 345.154 228.597C345.269 228.568 345.391 228.581 345.497 228.636C345.604 228.69 345.686 228.781 345.73 228.892C345.774 229.003 345.775 229.126 345.735 229.238L341.989 236.578C341.948 236.657 341.886 236.724 341.81 236.77C341.733 236.817 341.646 236.842 341.557 236.842V236.842Z" fill="#0C0C0C"/>
<path d="M295.985 228.645L294.819 249.201L295.788 249.256L296.954 228.7L295.985 228.645Z" fill="#0C0C0C"/>
<path d="M172.853 79.8785C172.853 79.8785 171.059 102.759 165.815 111.007C150.706 134.752 146.096 161.608 160.787 175.836C175.479 190.065 270.204 191.357 277.755 159.108C284.111 131.959 271.18 128.883 268.285 106.392C266.975 96.2151 263.295 74.8652 263.295 74.8652" fill="#0A0A0A"/>
<path d="M253.64 153.954C253.476 153.932 251.661 184.043 216.681 181.418C192.465 179.604 183.83 153.911 183.275 153.911C185.885 153.356 190.282 152.55 191.442 151.93C195.256 149.881 199.974 147.749 201.203 140.344C201.912 136.076 200.709 114.241 201.08 109.923L238.255 118.22C237.735 127.34 234.1 148.484 246.842 152.229C248.958 152.844 251.242 153.413 253.64 153.954Z" fill="#E98862"/>
<path opacity="0.52" d="M238.773 143.584C238.191 141.707 237.816 139.773 237.654 137.815C237.247 133.346 237.329 128.847 237.899 124.396C230.344 123.376 223.226 120.257 217.354 115.395C216.664 117.944 212.869 129.082 213.919 131.505C215.908 136.085 225.24 143.584 238.773 143.584Z" fill="#0C0C0C"/>
<path d="M233.846 134.107C219.175 135.355 200.282 129.274 196.58 109.713L193.236 92.063C189.534 72.5017 196.808 54.7003 215.225 51.2146C233.643 47.7289 250.41 60.981 254.112 80.5423L255.59 88.3563C257.013 95.8619 260.022 131.88 233.846 134.107Z" fill="#E98862"/>
<path d="M250.345 89.2085C251.62 89.2085 252.654 88.1748 252.654 86.8996C252.654 85.6245 251.62 84.5908 250.345 84.5908C249.069 84.5908 248.036 85.6245 248.036 86.8996C248.036 88.1748 249.069 89.2085 250.345 89.2085Z" fill="#0C0C0C"/>
<path d="M226.692 92.3672C227.967 92.3672 229.001 91.3335 229.001 90.0583C229.001 88.7832 227.967 87.7495 226.692 87.7495C225.417 87.7495 224.383 88.7832 224.383 90.0583C224.383 91.3335 225.417 92.3672 226.692 92.3672Z" fill="#0C0C0C"/>
<path d="M239.672 106.985C239.684 106.984 239.696 106.982 239.708 106.98C240.454 106.833 241.191 106.645 241.916 106.417C243 106.069 244.418 105.492 244.233 104.514C244.023 103.399 238.693 91.9546 238.087 90.6497C238.06 90.5934 238.023 90.5428 237.977 90.5009C237.931 90.4589 237.878 90.4264 237.819 90.4052C237.761 90.384 237.699 90.3745 237.637 90.3773C237.575 90.3801 237.514 90.395 237.458 90.4213C237.401 90.4476 237.351 90.4847 237.309 90.5305C237.267 90.5764 237.235 90.63 237.213 90.6884C237.192 90.7468 237.183 90.8088 237.185 90.8708C237.188 90.9329 237.203 90.9938 237.229 91.0501C239.502 95.9247 243.162 103.94 243.304 104.69C243.181 105.038 241.384 105.699 239.532 106.05C239.412 106.073 239.306 106.142 239.236 106.242C239.166 106.341 239.137 106.464 239.155 106.584C239.173 106.705 239.237 106.814 239.333 106.888C239.43 106.963 239.551 106.997 239.672 106.985Z" fill="#0C0C0C"/>
<path d="M236.945 115.43C239.949 115.041 242.819 113.951 245.325 112.249C245.429 112.18 245.501 112.073 245.526 111.951C245.551 111.829 245.527 111.702 245.459 111.597C245.391 111.493 245.285 111.419 245.163 111.393C245.041 111.367 244.914 111.389 244.809 111.456C239.387 114.989 233.999 115.56 229.231 113.109C229.135 113.057 229.036 113.01 228.934 112.968C228.817 112.926 228.687 112.933 228.575 112.986C228.462 113.04 228.375 113.136 228.332 113.253C228.29 113.37 228.296 113.5 228.348 113.613C228.401 113.726 228.496 113.814 228.613 113.857C228.651 113.873 228.713 113.906 228.799 113.951C231.307 115.243 234.143 115.758 236.945 115.43Z" fill="#0C0C0C"/>
<path d="M178.506 98.214L195.016 95.1875C207.519 90.131 211.301 68.4818 211.301 68.4818C211.301 68.4818 226.489 83.2843 263.295 74.8652C263.295 74.8652 255.915 23.536 201.54 38.4608C184.005 43.2727 171.422 60.9419 172.99 84.5558C174.088 101.104 178.506 98.214 178.506 98.214Z" fill="#0A0A0A"/>
<path d="M198.851 115.456C193.254 116.516 187.584 111.386 186.525 105.789C185.466 100.192 189.419 96.2469 195.016 95.1866L198.609 98.391L203.666 114.544L198.851 115.456Z" fill="#E98862"/>
<path d="M241.459 81.2951C243.093 80.2407 244.98 79.6452 246.923 79.571C247.879 79.5287 248.836 79.6299 249.762 79.8711C250.679 80.107 251.563 80.4572 252.393 80.9134C252.506 80.9732 252.591 81.0745 252.631 81.196C252.671 81.3176 252.662 81.4498 252.607 81.5651C252.551 81.6803 252.453 81.7695 252.333 81.8139C252.213 81.8583 252.081 81.8545 251.964 81.8032L251.928 81.7869C251.161 81.4103 250.35 81.1314 249.514 80.9567C248.687 80.7796 247.839 80.7287 246.997 80.8058C245.326 80.9454 243.722 81.5245 242.348 82.4842L242.304 82.5168C242.144 82.6226 241.95 82.6625 241.761 82.6282C241.573 82.5939 241.405 82.488 241.293 82.3327C241.18 82.1774 241.133 81.9847 241.159 81.795C241.186 81.6052 241.285 81.4331 241.435 81.3147L241.459 81.2951Z" fill="#0C0C0C"/>
<path d="M226.735 84.7621C225.107 84.3634 223.403 84.4025 221.796 84.8755C220.983 85.108 220.21 85.4619 219.503 85.9251C218.786 86.3903 218.131 86.9438 217.552 87.5726L217.526 87.5987C217.436 87.6894 217.314 87.7415 217.185 87.7438C217.057 87.7461 216.933 87.6986 216.839 87.6111C216.746 87.5237 216.689 87.4033 216.683 87.2753C216.676 87.1473 216.719 87.0217 216.804 86.925C217.412 86.1998 218.109 85.5542 218.879 85.0035C219.656 84.4442 220.511 84.0043 221.418 83.6986C223.256 83.0667 225.23 82.9405 227.134 83.3333C227.326 83.3747 227.494 83.4909 227.601 83.6563C227.708 83.8217 227.745 84.0228 227.703 84.2153C227.662 84.4078 227.546 84.576 227.38 84.6828C227.215 84.7896 227.014 84.8264 226.821 84.785L226.791 84.7776L226.735 84.7621Z" fill="#0C0C0C"/>
<path d="M237.584 119.871C238.128 119.808 238.666 119.699 239.192 119.545C239.252 119.528 239.307 119.499 239.356 119.46C239.404 119.422 239.445 119.374 239.475 119.319C239.505 119.265 239.524 119.205 239.531 119.144C239.538 119.082 239.533 119.019 239.516 118.96C239.498 118.9 239.47 118.844 239.431 118.796C239.392 118.747 239.344 118.706 239.29 118.676C239.235 118.646 239.176 118.627 239.114 118.62C239.052 118.613 238.99 118.619 238.93 118.636C235.765 119.547 233.965 118.34 233.889 118.288C233.786 118.215 233.659 118.187 233.535 118.209C233.412 118.23 233.302 118.3 233.23 118.403C233.158 118.506 233.129 118.633 233.151 118.757C233.172 118.88 233.242 118.99 233.345 119.062C234.622 119.814 236.12 120.099 237.584 119.871V119.871Z" fill="#0C0C0C"/>
<path d="M195.052 94.9762L194.889 94.5195C215.807 87.0098 210.692 66.482 210.638 66.2757L211.107 66.1525C211.162 66.3646 216.398 87.3164 195.052 94.9762Z" fill="#0C0C0C"/>
<path opacity="0.1" d="M224.828 108.426C227.243 108.166 229.047 106.519 228.856 104.748C228.665 102.976 226.553 101.75 224.138 102.01C221.723 102.27 219.919 103.917 220.11 105.689C220.3 107.46 222.413 108.686 224.828 108.426Z" fill="#0C0C0C"/>
<path opacity="0.1" d="M250.392 101.648C250.588 103.417 252.699 104.641 255.114 104.385C255.532 104.34 255.943 104.251 256.342 104.121C256.478 102.016 256.505 99.9903 256.469 98.1137C255.801 97.939 255.106 97.8903 254.421 97.9701C252.005 98.2262 250.203 99.8696 250.392 101.648Z" fill="#0C0C0C"/>
<path d="M297.1 220.247C295.998 233.191 290.639 313.948 289.58 329.893H143.246C142.421 315.512 139.054 252.632 135.927 224.512C132.942 197.68 127.084 184.243 131.377 176.312C138.391 163.344 157.564 155.854 170.636 154.084C178.619 153.004 190.625 152.229 190.625 152.229C190.625 152.229 191.642 172.793 215.881 173.938C248.878 175.495 246.674 152.229 246.838 152.229C252.183 152.229 282.723 155.613 290.191 160.041C310.549 172.093 299.439 192.813 297.1 220.247Z" fill="#EA394A"/>
<path d="M388.085 229.287L374.574 294.959C374.299 296.292 373.576 297.491 372.525 298.356C371.473 299.22 370.157 299.699 368.796 299.711L275.758 300.503C274.87 300.51 273.992 300.319 273.188 299.943C272.384 299.567 271.675 299.016 271.111 298.331C270.547 297.645 270.144 296.842 269.93 295.981C269.717 295.12 269.699 294.221 269.877 293.352L283.39 227.68C283.664 226.347 284.388 225.148 285.439 224.283C286.491 223.418 287.807 222.94 289.168 222.928L382.206 222.136C383.093 222.129 383.971 222.32 384.775 222.696C385.579 223.072 386.289 223.623 386.852 224.308C387.416 224.994 387.819 225.797 388.032 226.658C388.246 227.519 388.264 228.418 388.085 229.287V229.287Z" fill="#292A2E"/>
<path d="M301.33 275.935C301.38 276.8 301.116 277.653 300.586 278.339C300.056 279.024 299.295 279.494 298.446 279.663L295.582 280.294C295.634 280.311 295.68 280.34 295.717 280.379C295.754 280.418 295.781 280.466 295.795 280.517C295.802 280.578 295.789 280.64 295.757 280.692C296.445 280.885 297.056 281.288 297.505 281.845C297.954 282.402 298.218 283.085 298.261 283.798C298.265 284.631 297.989 285.44 297.476 286.095C296.963 286.75 296.245 287.214 295.436 287.411L271.251 292.779C270.014 293.057 268.751 293.197 267.484 293.197C264.661 293.197 261.88 292.51 259.382 291.195C256.884 289.881 254.743 287.979 253.144 285.653C251.448 283.192 250.779 280.167 251.279 277.22C251.78 274.274 253.41 271.639 255.824 269.876L276.397 254.837C276.85 254.505 277.376 254.289 277.931 254.206L276.037 263.4L276.542 263.284L276.649 263.264L292.427 260.05C294.184 259.662 296.592 260.303 296.903 262.303C297.069 263.068 296.972 263.868 296.626 264.571C296.281 265.275 295.707 265.84 294.999 266.177C295.009 266.186 295.029 266.196 295.029 266.216C295.029 266.235 295.019 266.245 295.019 266.264L297.747 265.662C298.246 265.551 298.764 265.553 299.262 265.666C299.761 265.78 300.228 266.002 300.63 266.318C301.032 266.634 301.359 267.035 301.588 267.492C301.816 267.95 301.94 268.452 301.951 268.963C301.951 269.779 301.669 270.57 301.152 271.202C300.635 271.834 299.916 272.267 299.116 272.429L297.941 272.691C297.932 272.73 297.941 272.773 297.922 272.798C298.778 272.805 299.601 273.129 300.231 273.709C300.861 274.289 301.252 275.082 301.33 275.935V275.935Z" fill="#E98862"/>
<g opacity="0.25">
<path opacity="0.25" d="M279.313 269.451C279.331 269.533 279.38 269.604 279.45 269.65C279.52 269.696 279.606 269.712 279.688 269.696L294.784 266.596C294.867 266.579 294.939 266.53 294.986 266.459C295.032 266.389 295.049 266.302 295.032 266.22C295.015 266.137 294.966 266.064 294.895 266.018C294.824 265.971 294.738 265.955 294.655 265.972L279.559 269.071C279.477 269.088 279.405 269.138 279.359 269.208C279.313 269.279 279.297 269.364 279.314 269.447L279.313 269.451Z" fill="#0C0C0C"/>
</g>
<g opacity="0.25">
<path opacity="0.25" d="M280.495 276.147C280.513 276.228 280.563 276.299 280.633 276.343C280.703 276.388 280.788 276.404 280.87 276.387L297.717 272.933C297.799 272.915 297.871 272.865 297.917 272.795C297.963 272.724 297.979 272.638 297.962 272.556C297.942 272.475 297.892 272.404 297.822 272.358C297.752 272.313 297.667 272.296 297.585 272.311L280.738 275.766C280.655 275.784 280.584 275.834 280.538 275.904C280.492 275.975 280.476 276.06 280.493 276.143L280.495 276.147Z" fill="#0C0C0C"/>
</g>
<g opacity="0.25">
<path opacity="0.25" d="M281.733 283.406C281.75 283.488 281.8 283.56 281.87 283.605C281.94 283.651 282.026 283.668 282.108 283.651L295.546 280.895C295.587 280.887 295.627 280.871 295.662 280.848C295.697 280.825 295.727 280.794 295.751 280.759C295.775 280.724 295.791 280.685 295.799 280.643C295.807 280.602 295.807 280.559 295.798 280.518C295.79 280.476 295.773 280.437 295.75 280.402C295.726 280.367 295.695 280.337 295.66 280.314C295.624 280.291 295.585 280.276 295.543 280.268C295.502 280.261 295.459 280.261 295.418 280.27L281.979 283.026C281.897 283.044 281.825 283.094 281.779 283.164C281.733 283.235 281.717 283.321 281.734 283.403L281.733 283.406Z" fill="#0C0C0C"/>
</g>
<path d="M269.754 302.349L138.54 326.061C134.446 326.506 130.304 325.997 126.439 324.573C122.575 323.149 119.093 320.849 116.267 317.853C113.44 314.857 111.347 311.247 110.15 307.306C108.953 303.365 108.686 299.2 109.369 295.139L127.739 185.953C128.912 178.982 132.807 172.762 138.567 168.662C141.418 166.632 144.642 165.183 148.053 164.399C151.465 163.615 154.998 163.51 158.45 164.091C161.902 164.672 165.205 165.927 168.172 167.785C171.139 169.643 173.711 172.067 175.741 174.918C177.771 177.77 179.22 180.994 180.004 184.405C180.788 187.817 180.893 191.349 180.312 194.801L167.79 269.961L263.988 257.88L269.754 302.349Z" fill="#EA394A"/>
<path d="M138.54 326.546C138.423 326.538 138.314 326.488 138.231 326.406C138.148 326.324 138.097 326.215 138.087 326.099C138.078 325.983 138.11 325.868 138.177 325.773C138.245 325.678 138.345 325.611 138.458 325.583L269.216 301.954L263.569 258.422L167.847 270.443C167.772 270.452 167.696 270.444 167.626 270.419C167.555 270.394 167.491 270.352 167.439 270.297C167.387 270.243 167.347 270.177 167.325 270.105C167.303 270.033 167.298 269.956 167.31 269.882L175.273 221.845C175.282 221.781 175.305 221.721 175.338 221.666C175.372 221.612 175.416 221.565 175.468 221.528C175.52 221.49 175.579 221.464 175.641 221.45C175.704 221.436 175.768 221.435 175.831 221.446C175.894 221.456 175.954 221.479 176.009 221.513C176.063 221.546 176.11 221.59 176.147 221.642C176.184 221.694 176.21 221.753 176.224 221.815C176.239 221.877 176.241 221.942 176.23 222.005L168.374 269.4L263.926 257.399C264.053 257.384 264.182 257.42 264.283 257.498C264.384 257.576 264.451 257.691 264.469 257.818L270.237 302.288C270.252 302.411 270.22 302.536 270.146 302.636C270.073 302.736 269.964 302.805 269.842 302.828L138.627 326.539C138.598 326.544 138.569 326.546 138.54 326.546V326.546Z" fill="#0C0C0C"/>
<path d="M167.711 269.483L159.271 270.834L159.424 271.793L167.865 270.442L167.711 269.483Z" fill="#0C0C0C"/>
</g>
<defs>
<clipPath id="clip0_218:489">
<rect width="978.465" height="761.3" fill="white"/>
</clipPath>
</defs>
</svg>
