<svg width="979" height="762" viewBox="0 0 979 762" fill="none" xmlns="http://www.w3.org/2000/svg">
<g clip-path="url(#clip0_302:573)">
<path d="M790.311 0H665.355V162.646H790.311V0Z" fill="#F4F4F4"/>
<path d="M790.312 162.646H794.365V0H790.312V162.646Z" fill="#F4F4F4"/>
<path opacity="0.05" d="M790.312 162.646H794.365V0H790.312V162.646Z" fill="#292A2E"/>
<path opacity="0.05" d="M767.55 29.6281H688.118V133.018H767.55V29.6281Z" fill="#292A2E"/>
<path opacity="0.03" d="M767.549 29.6281H763.409V133.018H767.549V29.6281Z" fill="#292A2E"/>
<path d="M892.506 202.643H790.312V305.775H892.506V202.643Z" fill="#F4F4F4"/>
<path opacity="0.05" d="M873.89 221.43H808.928V286.989H873.89V221.43Z" fill="#292A2E"/>
<path d="M892.506 305.775H896.559V202.643H892.506V305.775Z" fill="#F4F4F4"/>
<path opacity="0.05" d="M892.506 305.775H896.559V202.643H892.506V305.775Z" fill="#292A2E"/>
<path opacity="0.03" d="M873.89 221.43H869.75V286.989H873.89V221.43Z" fill="#292A2E"/>
<path d="M555.786 16.9301H188.118V384.598H555.786V16.9301Z" fill="#F4F4F4"/>
<path d="M560 16.9301H555.786V384.598H560V16.9301Z" fill="#F4F4F4"/>
<path opacity="0.05" d="M560 16.9301H555.786V384.598H560V16.9301Z" fill="#292A2E"/>
<path opacity="0.05" d="M466.717 270.283V174.089H387.92V229.976H265.863V328.93H213.987V384.598H265.863H275.857H538.1V270.283H466.717Z" fill="#292A2E"/>
<path opacity="0.34" d="M455.415 184.533H398.034V194.977H455.415V184.533Z" fill="#FFFFFA"/>
<path opacity="0.34" d="M455.415 206.177H398.034V216.621H455.415V206.177Z" fill="#FFFFFA"/>
<path opacity="0.34" d="M455.415 227.82H398.034V238.264H455.415V227.82Z" fill="#FFFFFA"/>
<path opacity="0.34" d="M527.924 280.421H517.348V290.865H527.924V280.421Z" fill="#FFFFFA"/>
<path opacity="0.34" d="M527.924 302.064H517.348V312.508H527.924V302.064Z" fill="#FFFFFA"/>
<path opacity="0.34" d="M527.924 323.708H517.348V334.152H527.924V323.708Z" fill="#FFFFFA"/>
<path opacity="0.34" d="M508.359 280.421H497.783V290.865H508.359V280.421Z" fill="#FFFFFA"/>
<path opacity="0.34" d="M508.359 302.064H497.783V312.508H508.359V302.064Z" fill="#FFFFFA"/>
<path opacity="0.34" d="M508.359 323.708H497.783V334.152H508.359V323.708Z" fill="#FFFFFA"/>
<path opacity="0.34" d="M489.322 280.421H478.746V290.865H489.322V280.421Z" fill="#FFFFFA"/>
<path opacity="0.34" d="M489.322 302.064H478.746V312.508H489.322V302.064Z" fill="#FFFFFA"/>
<path opacity="0.34" d="M489.322 323.708H478.746V334.152H489.322V323.708Z" fill="#FFFFFA"/>
<path d="M555.786 198.701H481.805V16.9301H475.687V198.701H275.857V16.9301H269.738V198.701H188.118V204.82H269.738V384.598H275.857V204.82H475.687V384.598H481.805V204.82H555.786V198.701Z" fill="white"/>
<path d="M570.432 384.154H173.471V396.381H570.432V384.154Z" fill="#F4F4F4"/>
<path opacity="0.1" d="M570.432 384.154H173.471V396.381H570.432V384.154Z" fill="#292A2E"/>
<path opacity="0.1" d="M576.164 384.154H570.433V396.381H576.164V384.154Z" fill="#292A2E"/>
<path opacity="0.1" d="M576.164 384.154H570.433V396.381H576.164V384.154Z" fill="#292A2E"/>
<path opacity="0.05" d="M747.449 745.306H726.446V759.332H747.449V745.306Z" fill="#292A2E"/>
<path opacity="0.05" d="M879.298 745.306H858.295V759.332H879.298V745.306Z" fill="#292A2E"/>
<path d="M898.551 531.599H707.194V745.306H898.551V531.599Z" fill="#F4F4F4"/>
<path opacity="0.03" d="M898.551 531.599H707.194V745.306H898.551V531.599Z" fill="#292A2E"/>
<path d="M847.729 531.599H656.372V745.306H847.729V531.599Z" fill="#F4F4F4"/>
<path opacity="0.05" d="M696.628 745.306H675.625V759.332H696.628V745.306Z" fill="#292A2E"/>
<path opacity="0.05" d="M828.477 745.306H807.474V759.332H828.477V745.306Z" fill="#292A2E"/>
<path opacity="0.7" d="M837.434 544.812H666.667V599.014H837.434V544.812Z" fill="white"/>
<path opacity="0.7" d="M837.434 612.281H666.667V666.483H837.434V612.281Z" fill="white"/>
<path opacity="0.7" d="M837.434 679.748H666.667V733.95H837.434V679.748Z" fill="white"/>
<path opacity="0.05" d="M752.05 579.497C756.239 579.497 759.634 576.102 759.634 571.913C759.634 567.725 756.239 564.329 752.05 564.329C747.862 564.329 744.466 567.725 744.466 571.913C744.466 576.102 747.862 579.497 752.05 579.497Z" fill="#292A2E"/>
<path opacity="0.05" d="M752.05 646.966C756.239 646.966 759.634 643.571 759.634 639.382C759.634 635.194 756.239 631.798 752.05 631.798C747.862 631.798 744.466 635.194 744.466 639.382C744.466 643.571 747.862 646.966 752.05 646.966Z" fill="#292A2E"/>
<path opacity="0.05" d="M752.05 714.434C756.239 714.434 759.634 711.039 759.634 706.85C759.634 702.662 756.239 699.266 752.05 699.266C747.862 699.266 744.466 702.662 744.466 706.85C744.466 711.039 747.862 714.434 752.05 714.434Z" fill="#292A2E"/>
<path d="M891.407 630.159C891.142 630.159 890.887 630.053 890.7 629.866C889.291 628.458 886.994 602.608 880.808 525.644C878.277 494.151 875.886 464.405 874.141 446.328C874.017 445.037 873.516 444.886 873.352 444.837C870.966 444.128 863.699 449.844 859.645 454.86C859.478 455.066 859.236 455.198 858.972 455.226C858.708 455.254 858.444 455.176 858.238 455.009C858.032 454.842 857.9 454.6 857.872 454.336C857.844 454.072 857.922 453.808 858.089 453.602C860.771 450.286 869.507 441.602 873.927 442.921C874.818 443.189 875.927 443.964 876.133 446.136C877.879 464.229 880.27 493.983 882.802 525.484C886.561 572.253 890.82 625.238 892.219 628.575C892.326 628.724 892.391 628.9 892.404 629.084C892.418 629.268 892.381 629.451 892.297 629.615C892.213 629.779 892.086 629.916 891.929 630.012C891.771 630.108 891.591 630.159 891.407 630.159V630.159Z" fill="#494949"/>
<path d="M871.572 479.499C888.166 466.197 893.665 445.494 883.856 433.256C874.047 421.019 852.643 421.881 836.049 435.183C819.455 448.484 813.955 469.187 823.765 481.425C833.574 493.662 854.978 492.8 871.572 479.499Z" fill="#0CBC8B"/>
<path opacity="0.2" d="M871.572 479.499C888.166 466.197 893.665 445.494 883.856 433.256C874.047 421.019 852.643 421.881 836.049 435.183C819.455 448.484 813.955 469.187 823.765 481.425C833.574 493.662 854.978 492.8 871.572 479.499Z" fill="white"/>
<path d="M828.417 484.538C828.322 484.538 828.229 484.511 828.148 484.46C828.068 484.409 828.004 484.336 827.964 484.25C827.923 484.164 827.908 484.068 827.92 483.974C827.932 483.88 827.971 483.791 828.032 483.718L875.323 426.69C875.365 426.639 875.416 426.597 875.475 426.567C875.533 426.536 875.596 426.517 875.662 426.511C875.727 426.505 875.793 426.512 875.856 426.531C875.919 426.551 875.977 426.582 876.028 426.624C876.078 426.666 876.12 426.718 876.151 426.776C876.181 426.834 876.2 426.898 876.206 426.963C876.212 427.028 876.205 427.094 876.186 427.157C876.167 427.22 876.135 427.278 876.093 427.329L828.8 484.357C828.753 484.413 828.695 484.459 828.629 484.49C828.562 484.521 828.49 484.538 828.417 484.538V484.538Z" fill="white"/>
<path d="M901.721 617.933C901.609 617.933 901.498 617.914 901.393 617.877C901.143 617.79 900.937 617.607 900.822 617.368C900.706 617.13 900.69 616.855 900.777 616.605L918.541 565.518C919.064 564.017 919.955 562.671 921.133 561.603C922.311 560.536 923.738 559.781 925.283 559.408C926.828 559.036 928.443 559.056 929.978 559.469C931.513 559.881 932.92 560.673 934.07 561.77L943.461 570.742C943.559 570.832 943.639 570.94 943.695 571.061C943.75 571.182 943.781 571.313 943.786 571.446C943.79 571.58 943.768 571.712 943.721 571.837C943.673 571.961 943.601 572.075 943.509 572.171C943.417 572.267 943.307 572.344 943.184 572.397C943.062 572.45 942.931 572.478 942.797 572.48C942.664 572.481 942.532 572.456 942.409 572.406C942.285 572.356 942.173 572.281 942.079 572.187L932.688 563.215C931.78 562.349 930.669 561.724 929.457 561.399C928.246 561.073 926.971 561.057 925.752 561.351C924.532 561.646 923.405 562.241 922.475 563.084C921.546 563.927 920.842 564.989 920.429 566.174L902.666 617.261C902.598 617.457 902.47 617.627 902.301 617.748C902.131 617.868 901.929 617.933 901.721 617.933Z" fill="#494949"/>
<path d="M969.701 599.026C981.999 589.292 981.268 567.883 968.069 551.208C954.87 534.532 934.201 528.905 921.903 538.639C909.605 548.373 910.336 569.782 923.535 586.458C936.734 603.133 957.403 608.76 969.701 599.026Z" fill="#0CBC8B"/>
<path d="M883.337 626.9C883.112 626.9 882.894 626.824 882.718 626.685C882.541 626.545 882.417 626.351 882.365 626.132L852.554 501.489C852.35 500.639 851.916 499.862 851.3 499.243C850.683 498.624 849.908 498.188 849.059 497.981C848.21 497.774 847.32 497.806 846.488 498.072C845.656 498.338 844.913 498.828 844.342 499.489L835.153 510.1C835.067 510.199 834.962 510.281 834.845 510.34C834.728 510.398 834.6 510.434 834.469 510.443C834.338 510.453 834.206 510.436 834.081 510.395C833.957 510.353 833.841 510.288 833.742 510.202C833.643 510.116 833.561 510.011 833.502 509.894C833.443 509.776 833.408 509.649 833.399 509.518C833.389 509.386 833.406 509.255 833.447 509.13C833.489 509.006 833.554 508.89 833.64 508.791L842.829 498.172C843.642 497.233 844.698 496.537 845.881 496.159C847.064 495.782 848.328 495.738 849.534 496.032C850.74 496.326 851.842 496.948 852.718 497.828C853.594 498.708 854.211 499.812 854.5 501.02L884.31 625.665C884.372 625.923 884.328 626.195 884.189 626.421C884.051 626.647 883.828 626.808 883.57 626.87C883.494 626.889 883.416 626.899 883.337 626.9Z" fill="#494949"/>
<path d="M872.342 537.798C875.966 516.842 866.376 497.688 850.921 495.015C835.467 492.343 820.001 507.164 816.377 528.12C812.753 549.076 822.344 568.23 837.798 570.903C853.253 573.575 868.718 558.754 872.342 537.798Z" fill="#0CBC8B"/>
<path d="M891.408 630.159C891.367 630.159 891.326 630.157 891.285 630.151C891.022 630.119 890.782 629.983 890.619 629.774C890.456 629.565 890.382 629.3 890.414 629.037L909.45 474.479C909.657 472.795 910.346 471.207 911.435 469.906C912.523 468.604 913.964 467.645 915.585 467.143C917.205 466.641 918.936 466.618 920.57 467.076C922.203 467.535 923.669 468.455 924.792 469.727L946.55 494.37C946.726 494.569 946.815 494.829 946.798 495.094C946.782 495.359 946.661 495.606 946.462 495.782C946.363 495.869 946.249 495.936 946.125 495.978C946 496.021 945.869 496.039 945.738 496.03C945.473 496.014 945.226 495.893 945.05 495.694L923.292 471.051C922.424 470.068 921.291 469.357 920.029 469.003C918.767 468.648 917.429 468.666 916.177 469.054C914.924 469.442 913.81 470.183 912.969 471.189C912.128 472.195 911.595 473.422 911.435 474.723L892.4 629.281C892.37 629.523 892.253 629.746 892.07 629.908C891.888 630.07 891.652 630.159 891.408 630.159V630.159Z" fill="#494949"/>
<path d="M968.865 508.063C976.457 494.339 967.525 474.869 948.915 464.575C930.306 454.281 909.066 457.062 901.474 470.786C893.883 484.51 902.815 503.981 921.424 514.275C940.034 524.568 961.274 521.788 968.865 508.063Z" fill="#0CBC8B"/>
<path opacity="0.2" d="M969.701 599.026C981.999 589.292 981.268 567.883 968.069 551.208C954.87 534.532 934.201 528.905 921.903 538.639C909.605 548.373 910.336 569.782 923.535 586.458C936.734 603.133 957.403 608.76 969.701 599.026Z" fill="white"/>
<path opacity="0.5" d="M872.342 537.798C875.966 516.842 866.376 497.688 850.921 495.015C835.467 492.343 820.001 507.164 816.377 528.12C812.753 549.076 822.344 568.23 837.798 570.903C853.253 573.575 868.718 558.754 872.342 537.798Z" fill="white"/>
<path opacity="0.5" d="M968.865 508.063C976.457 494.339 967.525 474.869 948.915 464.575C930.306 454.281 909.066 457.062 901.474 470.786C893.883 484.51 902.815 503.981 921.424 514.275C940.034 524.568 961.274 521.788 968.865 508.063Z" fill="white"/>
<path d="M915.755 761.3H867.059L858.989 605.496H923.824L915.755 761.3Z" fill="#292A2E"/>
<path opacity="0.3" d="M915.755 761.3H867.059L858.989 605.496H923.824L915.755 761.3Z" fill="white"/>
<path d="M969.7 599.52C969.625 599.52 969.55 599.503 969.482 599.47C969.414 599.438 969.355 599.39 969.308 599.331L921.508 538.944C921.467 538.892 921.437 538.833 921.419 538.77C921.401 538.707 921.396 538.641 921.403 538.576C921.411 538.51 921.431 538.447 921.463 538.39C921.495 538.333 921.538 538.282 921.589 538.241C921.641 538.201 921.7 538.17 921.763 538.152C921.826 538.134 921.892 538.129 921.958 538.137C922.023 538.144 922.086 538.164 922.143 538.196C922.201 538.228 922.251 538.271 922.292 538.323L970.092 598.71C970.15 598.784 970.186 598.872 970.197 598.965C970.207 599.059 970.191 599.153 970.15 599.238C970.109 599.322 970.045 599.393 969.965 599.443C969.886 599.493 969.794 599.52 969.7 599.52V599.52Z" fill="white"/>
<path d="M965.687 512.9C965.58 512.899 965.477 512.864 965.392 512.8L904.226 468.139C904.173 468.1 904.128 468.051 904.094 467.995C904.06 467.939 904.037 467.877 904.027 467.812C904.017 467.747 904.019 467.681 904.035 467.617C904.05 467.553 904.078 467.493 904.117 467.44C904.156 467.387 904.205 467.342 904.261 467.308C904.317 467.274 904.379 467.251 904.444 467.241C904.509 467.23 904.575 467.233 904.639 467.249C904.703 467.264 904.763 467.292 904.816 467.331L965.982 512C966.066 512.063 966.128 512.15 966.159 512.25C966.19 512.349 966.19 512.456 966.157 512.556C966.125 512.655 966.062 512.742 965.977 512.803C965.893 512.865 965.792 512.899 965.687 512.9Z" fill="white"/>
<path d="M835.312 570.251C835.268 570.251 835.225 570.245 835.183 570.234C835.055 570.2 834.946 570.116 834.879 570.001C834.813 569.886 834.795 569.75 834.829 569.622L854.3 496.669C854.336 496.542 854.419 496.434 854.533 496.367C854.647 496.301 854.783 496.282 854.911 496.314C855.039 496.348 855.148 496.432 855.215 496.547C855.281 496.661 855.299 496.798 855.265 496.926L835.8 569.879C835.771 569.986 835.708 570.081 835.62 570.149C835.531 570.216 835.423 570.252 835.312 570.251Z" fill="white"/>
<path d="M953.263 761.3H0.737043C0.638042 761.304 0.53932 761.287 0.44678 761.252C0.35424 761.217 0.26978 761.163 0.198449 761.094C0.127118 761.026 0.0703808 760.943 0.0316274 760.852C-0.007126 760.761 -0.0270996 760.663 -0.0270996 760.564C-0.0270996 760.465 -0.007126 760.367 0.0316274 760.275C0.0703808 760.184 0.127118 760.102 0.198449 760.033C0.26978 759.964 0.35424 759.911 0.44678 759.875C0.53932 759.84 0.638042 759.824 0.737043 759.827H953.263C953.362 759.824 953.461 759.84 953.553 759.875C953.646 759.911 953.73 759.964 953.802 760.033C953.873 760.102 953.93 760.184 953.969 760.275C954.007 760.367 954.027 760.465 954.027 760.564C954.027 760.663 954.007 760.761 953.969 760.852C953.93 760.943 953.873 761.026 953.802 761.094C953.73 761.163 953.646 761.217 953.553 761.252C953.461 761.287 953.362 761.304 953.263 761.3V761.3Z" fill="#292A2E"/>
<path d="M706.458 80.63H456.962C436.322 80.63 419.59 97.3621 419.59 118.002V704.518C419.59 725.158 436.322 741.89 456.962 741.89H706.458C727.098 741.89 743.83 725.158 743.83 704.518V118.002C743.83 97.3621 727.098 80.63 706.458 80.63Z" fill="#292A2E"/>
<path d="M706.341 92.3002H457.079C442.906 92.3002 431.417 103.79 431.417 117.962V703.686C431.417 717.859 442.906 729.348 457.079 729.348H706.341C720.514 729.348 732.003 717.859 732.003 703.686V117.962C732.003 103.79 720.514 92.3002 706.341 92.3002Z" fill="white"/>
<path d="M520.148 87.4741H643.272V100.214C643.273 102.024 642.917 103.816 642.225 105.488C641.533 107.16 640.518 108.679 639.239 109.959C637.96 111.239 636.441 112.254 634.769 112.947C633.097 113.64 631.305 113.996 629.495 113.996H533.925C530.271 113.996 526.767 112.545 524.183 109.961C521.599 107.377 520.148 103.873 520.148 100.219V87.4741Z" fill="#292A2E"/>
<path opacity="0.8" d="M653.006 628.27H510.415C502.013 628.27 495.202 635.081 495.202 643.483V684.333C495.202 692.735 502.013 699.547 510.415 699.547H653.006C661.408 699.547 668.219 692.735 668.219 684.333V643.483C668.219 635.081 661.408 628.27 653.006 628.27Z" fill="#EA394A"/>
<path d="M668.213 683.255V690.255C668.213 692.253 667.82 694.231 667.056 696.077C666.291 697.922 665.171 699.599 663.758 701.012C662.346 702.425 660.669 703.545 658.823 704.31C656.977 705.074 654.999 705.467 653.001 705.467H510.414C508.416 705.467 506.438 705.074 504.592 704.31C502.746 703.545 501.069 702.425 499.657 701.012C498.244 699.599 497.123 697.922 496.359 696.077C495.595 694.231 495.201 692.253 495.202 690.255V683.255C495.202 687.289 496.804 691.158 499.657 694.01C502.509 696.862 506.378 698.465 510.412 698.465H653.001C654.999 698.465 656.977 698.072 658.822 697.308C660.668 696.544 662.345 695.423 663.758 694.011C665.17 692.598 666.291 690.921 667.055 689.076C667.82 687.23 668.213 685.252 668.213 683.255V683.255Z" fill="#EA394A"/>
<path d="M572.202 683.885C571.605 683.886 571.029 683.673 570.575 683.285L554.255 669.298C553.751 668.867 553.439 668.253 553.388 667.591C553.336 666.93 553.55 666.275 553.982 665.771C554.413 665.267 555.027 664.956 555.688 664.904C556.35 664.853 557.005 665.067 557.509 665.498L571.991 677.91L605.69 641.039C606.138 640.55 606.761 640.258 607.423 640.228C608.086 640.198 608.733 640.433 609.222 640.88C609.712 641.327 610.004 641.951 610.033 642.613C610.063 643.276 609.829 643.923 609.381 644.412L574.05 683.07C573.816 683.327 573.53 683.533 573.212 683.673C572.894 683.813 572.549 683.886 572.202 683.885V683.885Z" fill="white"/>
<path d="M505.052 277.538H455.425C452.66 277.535 450.008 276.435 448.053 274.479C446.097 272.524 444.996 269.873 444.993 267.107V217.479C444.996 214.713 446.096 212.061 448.052 210.105C450.008 208.15 452.659 207.049 455.425 207.046H505.052C507.818 207.049 510.47 208.149 512.426 210.105C514.382 212.061 515.482 214.713 515.486 217.479V267.107C515.482 269.873 514.381 272.524 512.425 274.48C510.47 276.435 507.818 277.535 505.052 277.538V277.538ZM455.425 208.772C453.117 208.775 450.905 209.693 449.273 211.325C447.641 212.957 446.723 215.169 446.72 217.477V267.107C446.723 269.415 447.641 271.628 449.273 273.26C450.905 274.892 453.117 275.81 455.425 275.812H505.052C507.36 275.81 509.573 274.892 511.205 273.26C512.837 271.628 513.755 269.415 513.758 267.107V217.479C513.755 215.171 512.837 212.958 511.205 211.326C509.573 209.694 507.36 208.776 505.052 208.774L455.425 208.772Z" fill="#292A2E"/>
<path d="M505.052 375.86H455.425C452.659 375.857 450.008 374.757 448.052 372.801C446.096 370.845 444.996 368.193 444.993 365.427V315.8C444.996 313.034 446.096 310.382 448.052 308.426C450.007 306.47 452.659 305.37 455.425 305.366H505.052C507.818 305.37 510.47 306.47 512.426 308.426C514.382 310.382 515.482 313.034 515.486 315.8V365.427C515.482 368.193 514.382 370.845 512.426 372.801C510.47 374.757 507.818 375.857 505.052 375.86V375.86ZM455.425 307.096C453.117 307.099 450.905 308.017 449.273 309.649C447.641 311.282 446.723 313.494 446.72 315.803V365.43C446.723 367.738 447.641 369.951 449.273 371.583C450.905 373.215 453.117 374.133 455.425 374.135H505.052C507.36 374.133 509.573 373.215 511.205 371.583C512.837 369.951 513.755 367.738 513.758 365.43V315.8C513.755 313.492 512.837 311.279 511.205 309.647C509.573 308.015 507.36 307.097 505.052 307.094L455.425 307.096Z" fill="#292A2E"/>
<path d="M505.052 474.182H455.425C452.659 474.179 450.008 473.079 448.052 471.123C446.096 469.167 444.996 466.515 444.993 463.749V414.122C444.996 411.356 446.096 408.704 448.052 406.749C450.008 404.793 452.659 403.693 455.425 403.689H505.052C507.818 403.692 510.47 404.792 512.426 406.748C514.382 408.704 515.482 411.356 515.486 414.122V463.749C515.482 466.516 514.382 469.167 512.426 471.123C510.47 473.079 507.818 474.179 505.052 474.182ZM455.425 405.417C453.117 405.419 450.905 406.337 449.273 407.969C447.641 409.601 446.723 411.814 446.72 414.122V463.749C446.723 466.057 447.641 468.27 449.273 469.902C450.905 471.534 453.117 472.452 455.425 472.455H505.052C507.36 472.452 509.573 471.534 511.205 469.902C512.837 468.27 513.755 466.058 513.758 463.749V414.122C513.755 411.814 512.837 409.601 511.205 407.969C509.573 406.337 507.36 405.419 505.052 405.417H455.425Z" fill="#292A2E"/>
<path d="M471.411 458.79C470.519 458.791 469.66 458.446 469.017 457.826L454.552 443.921C453.891 443.286 453.51 442.415 453.492 441.498C453.474 440.582 453.82 439.696 454.455 439.036C455.09 438.375 455.962 437.994 456.878 437.976C457.794 437.958 458.68 438.304 459.34 438.939L471.353 450.484L501.462 420.102C502.107 419.451 502.984 419.083 503.9 419.079C504.816 419.074 505.697 419.434 506.348 420.079C506.999 420.724 507.367 421.601 507.371 422.518C507.375 423.434 507.015 424.314 506.37 424.965L473.865 457.764C473.545 458.089 473.163 458.348 472.741 458.524C472.32 458.7 471.868 458.791 471.411 458.79V458.79Z" fill="#0CBC8B"/>
<path opacity="0.5" d="M696.767 226.911H541.287C540.575 226.911 539.999 228.072 539.999 229.503C539.999 230.934 540.575 232.094 541.287 232.094H696.767C697.478 232.094 698.054 230.934 698.054 229.503C698.054 228.072 697.478 226.911 696.767 226.911Z" fill="#262626"/>
<path opacity="0.5" d="M641.489 252.822H541.288C540.576 252.822 539.999 253.982 539.999 255.413C539.999 256.845 540.576 258.005 541.288 258.005H641.489C642.201 258.005 642.778 256.845 642.778 255.413C642.778 253.982 642.201 252.822 641.489 252.822Z" fill="#262626"/>
<path opacity="0.5" d="M696.767 325.373H541.287C540.575 325.373 539.999 326.34 539.999 327.533C539.999 328.725 540.575 329.692 541.287 329.692H696.767C697.478 329.692 698.054 328.725 698.054 327.533C698.054 326.34 697.478 325.373 696.767 325.373Z" fill="#262626"/>
<path opacity="0.5" d="M641.489 351.284H541.288C540.576 351.284 539.999 352.251 539.999 353.443C539.999 354.636 540.576 355.603 541.288 355.603H641.489C642.201 355.603 642.778 354.636 642.778 353.443C642.778 352.251 642.201 351.284 641.489 351.284Z" fill="#262626"/>
<path opacity="0.5" d="M696.767 423.835H541.287C540.575 423.835 539.999 424.802 539.999 425.994C539.999 427.187 540.575 428.153 541.287 428.153H696.767C697.478 428.153 698.054 427.187 698.054 425.994C698.054 424.802 697.478 423.835 696.767 423.835Z" fill="#262626"/>
<path opacity="0.5" d="M641.489 449.746H541.288C540.576 449.746 539.999 450.713 539.999 451.905C539.999 453.098 540.576 454.065 541.288 454.065H641.489C642.201 454.065 642.778 453.098 642.778 451.905C642.778 450.713 642.201 449.746 641.489 449.746Z" fill="#262626"/>
<path d="M454.482 168.266H472.717V173H447.31V169.156L464.959 143.656H447.427V138.875H472.154V142.625L454.482 168.266ZM475.693 160.086C475.693 157.602 476.185 155.367 477.17 153.383C478.154 151.383 479.537 149.852 481.318 148.789C483.099 147.711 485.146 147.172 487.459 147.172C490.881 147.172 493.654 148.273 495.779 150.477C497.92 152.68 499.076 155.602 499.248 159.242L499.271 160.578C499.271 163.078 498.787 165.312 497.818 167.281C496.865 169.25 495.49 170.773 493.693 171.852C491.912 172.93 489.849 173.469 487.506 173.469C483.927 173.469 481.06 172.281 478.904 169.906C476.763 167.516 475.693 164.336 475.693 160.367V160.086ZM481.388 160.578C481.388 163.188 481.927 165.234 483.006 166.719C484.084 168.188 485.584 168.922 487.506 168.922C489.427 168.922 490.92 168.172 491.982 166.672C493.06 165.172 493.599 162.977 493.599 160.086C493.599 157.523 493.045 155.492 491.935 153.992C490.842 152.492 489.349 151.742 487.459 151.742C485.599 151.742 484.123 152.484 483.029 153.969C481.935 155.438 481.388 157.641 481.388 160.578ZM509.373 147.641L509.537 150.57C511.412 148.305 513.873 147.172 516.92 147.172C522.201 147.172 524.888 150.195 524.982 156.242V173H519.287V156.57C519.287 154.961 518.935 153.773 518.232 153.008C517.545 152.227 516.412 151.836 514.834 151.836C512.537 151.836 510.826 152.875 509.701 154.953V173H504.006V147.641H509.373ZM541.974 173.469C538.365 173.469 535.435 172.336 533.185 170.07C530.951 167.789 529.834 164.758 529.834 160.977V160.273C529.834 157.742 530.318 155.484 531.287 153.5C532.271 151.5 533.646 149.945 535.412 148.836C537.177 147.727 539.146 147.172 541.318 147.172C544.771 147.172 547.435 148.273 549.31 150.477C551.201 152.68 552.146 155.797 552.146 159.828V162.125H535.576C535.748 164.219 536.443 165.875 537.662 167.094C538.896 168.312 540.443 168.922 542.302 168.922C544.912 168.922 547.037 167.867 548.677 165.758L551.748 168.688C550.732 170.203 549.373 171.383 547.67 172.227C545.982 173.055 544.084 173.469 541.974 173.469ZM541.295 151.742C539.732 151.742 538.467 152.289 537.498 153.383C536.545 154.477 535.935 156 535.67 157.953H546.521V157.531C546.396 155.625 545.888 154.188 544.998 153.219C544.107 152.234 542.873 151.742 541.295 151.742ZM570.802 166.109C570.802 165.094 570.381 164.32 569.537 163.789C568.709 163.258 567.326 162.789 565.388 162.383C563.451 161.977 561.834 161.461 560.537 160.836C557.693 159.461 556.271 157.469 556.271 154.859C556.271 152.672 557.193 150.844 559.037 149.375C560.881 147.906 563.224 147.172 566.068 147.172C569.099 147.172 571.545 147.922 573.404 149.422C575.279 150.922 576.217 152.867 576.217 155.258H570.521C570.521 154.164 570.115 153.258 569.302 152.539C568.49 151.805 567.412 151.438 566.068 151.438C564.818 151.438 563.795 151.727 562.998 152.305C562.217 152.883 561.826 153.656 561.826 154.625C561.826 155.5 562.193 156.18 562.927 156.664C563.662 157.148 565.146 157.641 567.381 158.141C569.615 158.625 571.365 159.211 572.631 159.898C573.912 160.57 574.857 161.383 575.467 162.336C576.092 163.289 576.404 164.445 576.404 165.805C576.404 168.086 575.459 169.938 573.568 171.359C571.677 172.766 569.201 173.469 566.138 173.469C564.06 173.469 562.209 173.094 560.584 172.344C558.959 171.594 557.693 170.562 556.787 169.25C555.881 167.938 555.427 166.523 555.427 165.008H560.959C561.037 166.352 561.545 167.391 562.482 168.125C563.42 168.844 564.662 169.203 566.209 169.203C567.709 169.203 568.849 168.922 569.631 168.359C570.412 167.781 570.802 167.031 570.802 166.109Z" fill="#EA394A"/>
<path d="M447.079 221.248C447.746 220.925 448.5 220.829 449.227 220.974C449.953 221.119 450.612 221.498 451.104 222.052C451.144 222.008 451.201 221.867 451.278 221.937L450.512 219.209C450.269 218.41 450.323 217.549 450.665 216.787C451.007 216.024 451.613 215.411 452.372 215.061C453.132 214.739 453.985 214.711 454.765 214.983C455.545 215.254 456.196 215.806 456.593 216.531C456.609 216.501 456.645 216.491 456.668 216.47L456.353 215.349C456.127 214.595 456.168 213.785 456.47 213.058C456.771 212.331 457.315 211.73 458.009 211.358C458.449 211.133 458.933 211.01 459.426 210.995C459.92 210.981 460.41 211.076 460.863 211.274C461.315 211.472 461.718 211.768 462.042 212.14C462.366 212.513 462.603 212.952 462.737 213.428L463.464 216.018C463.477 216.012 463.482 215.997 463.495 215.992C463.508 215.986 463.531 215.999 463.549 215.996C463.51 215.242 463.729 214.497 464.169 213.883C464.609 213.269 465.245 212.823 465.972 212.618C467.815 211.967 469.461 213.72 469.932 215.394L471.005 220.784C471.171 221.615 471.128 222.475 470.88 223.286C470.633 224.096 470.189 224.834 469.588 225.431C464.392 230.61 450.494 243.813 448.997 238.465L445.301 225.313C445.102 224.534 445.17 223.712 445.492 222.975C445.814 222.239 446.373 221.631 447.079 221.248V221.248Z" fill="#E98862"/>
<path d="M452.593 227.836C451.615 227.681 450.735 227.153 450.138 226.363L436.709 208.618C436.399 208.217 436.173 207.759 436.041 207.27C435.91 206.782 435.877 206.271 435.944 205.77C436.011 205.268 436.177 204.784 436.432 204.347C436.687 203.91 437.026 203.527 437.43 203.222C437.833 202.916 438.294 202.694 438.784 202.567C439.274 202.441 439.784 202.412 440.285 202.484C440.787 202.556 441.268 202.726 441.703 202.986C442.138 203.245 442.517 203.587 442.819 203.994L453.971 218.728L492.231 190.678C492.637 190.381 493.097 190.166 493.586 190.046C494.075 189.927 494.582 189.905 495.08 189.981C495.577 190.058 496.054 190.231 496.485 190.492C496.915 190.753 497.289 191.097 497.587 191.502C497.884 191.908 498.099 192.369 498.219 192.857C498.338 193.346 498.361 193.854 498.284 194.351C498.207 194.848 498.034 195.326 497.773 195.756C497.512 196.186 497.168 196.561 496.763 196.858L455.459 227.139C455.051 227.439 454.588 227.656 454.096 227.775C453.604 227.895 453.093 227.915 452.593 227.836V227.836Z" fill="#0CBC8B"/>
<path d="M446.304 209.749C446.738 209.388 447.24 209.119 447.78 208.959C448.321 208.799 448.888 208.751 449.448 208.817C450.008 208.884 450.548 209.064 451.036 209.346C451.524 209.628 451.95 210.007 452.287 210.459C452.908 211.357 453.165 212.456 453.006 213.536C452.848 214.616 452.286 215.596 451.433 216.278L447.409 220.57C446.558 221.478 446.068 222.666 446.033 223.91C445.997 225.154 446.419 226.368 447.217 227.322V227.322C447.999 228.258 449.091 228.882 450.295 229.081C451.498 229.28 452.733 229.041 453.775 228.407L462.728 222.958L463.567 217.154C465.646 216.552 469.542 213.661 470.063 216.038C470.609 217.931 471.747 222.344 470.924 224.811C470.933 224.831 458.685 241.322 456.757 241.879L433.024 254.217C424.843 256.581 412.485 237.903 412.485 237.903L446.304 209.749Z" fill="#E98862"/>
<path d="M453.737 218.129L492.479 190.749C492.89 190.459 493.354 190.252 493.845 190.141C494.336 190.03 494.843 190.016 495.339 190.102C495.835 190.187 496.31 190.369 496.735 190.637C497.161 190.906 497.529 191.255 497.82 191.666C498.11 192.077 498.317 192.541 498.428 193.032C498.539 193.523 498.552 194.031 498.467 194.527C498.382 195.023 498.2 195.497 497.932 195.922C497.663 196.348 497.313 196.717 496.903 197.007L455.078 226.564" fill="#0CBC8B"/>
<path d="M213.93 177.422L295.774 285.569C300.872 294.12 312.495 297.021 322.293 295.143L435.017 265.755L425.651 216.875L328.597 241.267L258.041 145.255L213.93 177.422Z" fill="#EA394A"/>
<path d="M138.114 717.759C138.114 717.759 142.439 740.174 163.43 741.427C184.421 742.68 179.869 759.398 179.869 759.398H99.6543V719.321L138.114 717.759Z" fill="#EA394A"/>
<path d="M113.373 308.797C113.373 308.797 113.625 302.059 113.572 317.346C113.373 374.369 112.384 439.503 109.966 477.618C106.08 538.89 96.1149 732.065 96.1149 732.065L148.825 731.623L199.912 306.481L113.373 308.797Z" fill="#262626"/>
<path d="M172.897 376.042C172.897 376.042 175.081 417.423 175.483 427.137C176.42 449.605 176.746 472.867 176.746 499.242L185.057 430.099C185.057 430.099 178.977 408.431 172.897 376.042Z" fill="#0A0A0A"/>
<path d="M231.952 717.759C231.952 717.759 236.277 740.174 257.268 741.427C278.258 742.68 273.706 759.398 273.706 759.398H193.492V719.321L231.952 717.759Z" fill="#EA394A"/>
<path d="M257.473 313.226C257.473 313.226 262.142 508.118 261.458 517.643L241.857 730.586L190.018 731.544L195.07 509.939C195.07 509.939 191.506 448.809 176.736 392.045C169.179 362.912 164.631 333.081 163.164 303.02L257.473 313.226Z" fill="#262626"/>
<path d="M112.799 308.792L112.626 308.801C112.626 308.801 112.752 305.475 112.799 308.792Z" fill="#333333"/>
<path d="M264.893 210.796C263.807 223.567 258.518 297.495 257.473 313.226H113.431C112.618 299.038 108.963 236.999 105.878 209.255C102.932 182.781 97.1531 169.526 101.389 161.699C108.311 148.907 127.226 141.516 140.123 139.77C147.999 138.704 215.143 137.937 215.303 137.937C220.578 137.937 251.288 140.416 258.077 145.645C270.36 155.105 266.792 188.525 264.893 210.796Z" fill="#EA394A"/>
<path d="M266.883 191.372C267.005 191.372 267.123 191.326 267.212 191.242C267.301 191.158 267.355 191.043 267.362 190.921L268.524 172.557C268.531 172.43 268.488 172.306 268.404 172.211C268.319 172.116 268.201 172.059 268.074 172.051C267.947 172.045 267.824 172.089 267.729 172.173C267.635 172.257 267.577 172.375 267.568 172.501L266.406 190.865C266.399 190.992 266.442 191.117 266.526 191.212C266.611 191.306 266.73 191.364 266.856 191.371L266.883 191.372Z" fill="#0C0C0C"/>
<path d="M82.2894 312.391C78.0532 312.389 73.8801 311.364 70.1251 309.403C66.3702 307.443 63.1444 304.604 60.7224 301.128C58.3004 297.653 56.7538 293.644 56.2142 289.442C55.6746 285.24 56.158 280.971 57.6233 276.996C59.1071 272.96 93.9941 180.577 100.633 163.459L149.811 183.383C146.076 193.007 132.547 229.488 121.677 258.877L139.735 256.914L145.419 309.202L85.1334 312.235C84.1889 312.338 83.2395 312.39 82.2894 312.391V312.391Z" fill="#EA394A"/>
<path d="M232.464 136.19C232.303 136.169 227.885 152.796 193.403 150.208C169.532 148.42 163.708 132.172 163.164 132.172C165.737 131.625 169.918 131.057 171.061 130.447C174.819 128.427 177.558 125.969 178.936 120.692C180.013 116.566 180.564 100.681 180.564 92.7117L217.297 100.966C216.784 109.956 213.201 130.798 225.761 134.487C227.85 135.096 230.101 135.657 232.464 136.19Z" fill="#E98862"/>
<path d="M216.025 118.639C201.544 119.782 182.942 113.668 179.408 94.3478L176.22 76.9138C172.686 57.5938 179.969 40.0756 198.161 36.7488C216.351 33.4219 232.813 46.598 236.346 65.918L237.758 73.6359C239.113 81.0501 241.862 116.601 216.025 118.639Z" fill="#E98862"/>
<path d="M229.452 100.901C226.853 87.8407 225.66 79.1266 225.799 69.9345C229.46 63.5165 228.498 56.1406 227.665 52.9565C230.187 54.5577 233.151 55.3177 236.132 55.1271C236.132 55.1271 230.077 30.8269 209.498 24.2882C205.713 22.8159 196.05 20.9557 183.221 22.7154C172.31 24.2116 145.412 32.3701 141.569 62.6525V62.6697C141.442 63.6746 138.86 91.5755 133.714 104.962C126.793 122.958 117.075 128.549 117.321 149.313C117.638 176.021 166.738 179.577 196.348 177.578C225.959 175.58 242.495 165.843 242.711 146.596C242.947 125.029 234.653 127.032 229.452 100.901Z" fill="#0A0A0A"/>
<path d="M110.364 209.789L109.407 209.821L112.946 313.242L113.903 313.209L110.364 209.789Z" fill="#0C0C0C"/>
</g>
<defs>
<clipPath id="clip0_302:573">
<rect width="978.465" height="761.3" fill="white"/>
</clipPath>
</defs>
</svg>
